<?xml version="1.0" encoding="UTF-8"?>
<svg id="Layer_1" data-name="Layer 1" xmlns="http://www.w3.org/2000/svg" viewBox="0 0 228.14 161.11">
  <defs>
    <style>
      .cls-1 {
        fill: #cca354;
        stroke-width: 0px;
      }
    </style>
  </defs>
  <path class="cls-1" d="m225.14.52c-14.96-1.07-30.21-.66-44.85,2.82s-28.33,10.27-38.66,21.19c-11.1,11.74-17.89,26.99-22.37,42.34s-6.37,34.08,2.76,48.78c3.68,5.93,8.95,11.14,15.38,14.01s13.47,3.4,20.1.97c6.18-2.26,11.89-6.61,14.85-12.6,3.1-6.27,2.83-13.47-.43-19.63s-8.86-10.49-14.84-13.44c-6.84-3.38-14.44-5.07-22.05-5.28-8.3-.23-16.66,1.72-23.49,6.58-6.4,4.55-11.25,10.7-16.43,16.5-10.09,11.3-22.3,20.49-35.86,27.22s-28.09,10.81-42.97,12.03c-3.73.3-7.47.42-11.21.37s-3.86,5.95,0,6c14.74.2,29.54-2.33,43.41-7.34,13.96-5.03,26.95-12.44,38.35-21.93,5.68-4.74,10.74-10.03,15.59-15.61s9.48-10.98,15.87-14.37,14.6-4.03,21.95-3.03c6.6.89,12.75,2.95,18.24,6.6,2.29,1.53,4.63,3.57,6.33,5.74s2.91,4.63,3.49,7.49c.52,2.56.33,5.2-.65,7.9-.27.75-.25.69-.65,1.46-.34.66-.72,1.3-1.13,1.92-.46.68-.48.73-.98,1.31s-1.01,1.13-1.55,1.65c-4.01,3.87-9.7,6.16-15.27,6.04-1.65-.03-2.44-.15-4.04-.55-1.41-.35-2.98-.88-4.1-1.4-2.92-1.36-5.37-3.08-7.61-5.25-4.54-4.39-7.72-10.02-9.39-16.08-2.16-7.85-1.86-16.25-.38-24.2,1.47-7.94,3.94-15.73,6.93-23.22,2.74-6.86,6.19-13.5,10.47-19.54,8.15-11.51,19.8-19.72,33.04-24.28s27.52-5.92,41.59-5.66c3.52.07,7.03.24,10.54.49,1.62.12,3-1.46,3-3,0-1.72-1.38-2.88-3-3h0Z"/>
  <path class="cls-1" d="m5.42,147.38c1.96-1.68,3.94-3.33,5.95-4.96.97-.79,1.95-1.57,2.93-2.34.52-.41,1.05-.82,1.57-1.23.05-.04.46-.36.16-.12s.11-.08.16-.12c.28-.21.56-.43.84-.64.65-.5,1.15-.97,1.38-1.79.2-.72.11-1.67-.3-2.31-.79-1.23-2.77-2.1-4.1-1.08-4.37,3.34-8.65,6.78-12.83,10.36-1.2,1.02-1.13,3.2,0,4.24,1.27,1.17,2.97,1.09,4.24,0h0Z"/>
  <path class="cls-1" d="m.85,147.34c4.35,5.03,8.86,10.11,14.74,13.39,1.37.76,3.34.38,4.1-1.08s.39-3.29-1.08-4.1c-.7-.39-1.38-.8-2.05-1.25-.33-.22-.66-.45-.98-.68-.13-.09-.26-.19-.39-.28-.1-.07-.74-.47-.15-.11-.63-.38-1.2-.97-1.75-1.46-.6-.53-1.19-1.08-1.76-1.64-2.28-2.22-4.37-4.63-6.45-7.04-1.03-1.19-3.2-1.13-4.24,0-1.17,1.27-1.1,2.97,0,4.24h0Z"/>
</svg>