<?xml version="1.0" encoding="UTF-8"?>
<svg id="Layer_1" data-name="Layer 1" xmlns="http://www.w3.org/2000/svg" viewBox="0 0 935.31 1083.63">
  <defs>
    <style>
      .cls-1 {
        stroke-width: 3px;
      }

      .cls-1, .cls-2, .cls-3 {
        stroke-miterlimit: 10;
      }

      .cls-1, .cls-3 {
        fill: none;
        stroke: #b31a1a;
      }

      .cls-2 {
        fill: #bc9344;
        stroke: #bc9344;
        stroke-width: 5px;
      }

      .cls-3 {
        stroke-width: 4px;
      }

      .cls-4 {
        fill: #cca354;
      }

      .cls-4, .cls-5 {
        stroke-width: 0px;
      }

      .cls-5 {
        fill: #c32a2a;
      }
    </style>
  </defs>
  <g>
    <g>
      <path class="cls-5" d="m188.31,2.33l186.98-.41c-1.68,21.42-4.49,41.36-6.48,63.29,0,3-2,6-2,9-9,93-46,182-119,244-1,1-2,3-3,4-70,63-143.57,98.36-232.5,118.5v-89c57.72-37.71,91.5-75.5,123.5-138.5,34-67,46.65-137.54,52.5-210.5v-.38Z"/>
      <path class="cls-5" d="m188.31,2.71c-5.85,72.96-18.5,143.5-52.5,210.5-32,63-65.78,100.79-123.5,138.5V2.71l176-.38v.38Z"/>
      <path class="cls-5" d="m750.35,1.11l182.96-.4c-4.71,55.19-9.5,109.5-25.5,163.5-20,65-59,118-110,164-1,1-3,1-4,2-45,40-96,68-151,89-45.05,16.6-90.73,28.2-137.53,35.29-12.41,1.89-24.9,3.45-37.47,4.71-3,0-6.02,1.7-9,2-47.41,4.79-94.58,7.51-141.76,8.75-51.35,1.35-102.69.94-154.34-.49v-.23c27.03-.96,54.06-2.44,81.02-4.78,35.51-3.09,70.92-7.67,105.9-14.54,34.42-6.75,68.47-15.69,101.49-27.54,27.42-9.84,54.07-21.82,79.56-35.92,25.3-14,49.46-30.11,71.88-48.38,22.3-18.18,42.88-38.52,60.93-60.95,17.9-22.25,33.26-46.57,45.24-72.51,14.32-31,23.46-64.1,29.53-97.63,6.31-34.86,9.42-70.21,12.09-105.51v-.37Z"/>
      <path class="cls-5" d="m123.5,470.31c-31.89.65-63.8.9-95.69.63-8.97-.07-6.52-.03-15.5-.23v-5c7.22-.37,2.71.18,9.93-.29,29.43-1.94,58.81-4.75,88.02-8.88,29.18-4.14,58.19-9.59,86.78-16.8,26.74-6.75,53.14-14.98,78.77-25.16,22.31-8.86,44.05-19.16,64.98-30.91,20.97-11.78,41.13-25.01,60.15-39.74,18.85-14.59,36.58-30.65,52.74-48.17,15.98-17.33,30.42-36.08,42.83-56.12,13.1-21.14,23.82-43.68,31.98-67.17,9.55-27.53,15.75-56.11,20.09-84.89,4.3-28.53,6.8-57.29,8.98-86.05l192.79-.42v.37c-2.67,35.3-5.78,70.65-12.09,105.51-6.07,33.53-15.21,66.63-29.53,97.63-11.98,25.94-27.34,50.26-45.24,72.51-18.05,22.43-38.63,42.77-60.93,60.95-22.42,18.27-46.58,34.38-71.88,48.38-25.49,14.1-52.14,26.08-79.56,35.92-33.02,11.85-67.07,20.79-101.49,27.54-34.98,6.87-70.39,11.45-105.9,14.54-26.96,2.34-53.99,3.82-81.03,4.78-8.86.31-17.72.57-26.58.79-4.21.1-8.41.19-12.62.28Z"/>
      <path class="cls-5" d="m608.31,1082.71h-188c-16.08-30.9-18.07-35.79-24.54-70.01-4.23-22.33-4.16-45.28-8.12-67.66-4.19-23.65-12.82-46.26-19.2-69.41-9.36-34-13.87-69.11-18.35-104.08-5.12-39.95-9.85-79.96-15.36-119.86-6.89-49.88-13.23-92.78-17.68-181.34v-.39c47.17-1.24,94.34-3.96,141.75-8.75,2.98-.3,6-2,9-2,12.57-1.26,25.06-2.82,37.47-4.71l.03.21c2.23,60.71,3.88,125.26,11.6,185.52,5.12,39.95,10.24,79.91,15.36,119.86,4.48,34.97,8.99,70.08,18.35,104.08,6.38,23.15,15,45.76,19.2,69.41,3.96,22.38,3.89,45.33,8.12,67.66,6.47,34.22,14.29,50.57,30.37,81.47Z"/>
      <path class="cls-5" d="m375.29,1.92l182.27-.39c-2.18,28.76-4.68,57.52-8.98,86.05-4.34,28.78-10.54,57.36-20.09,84.89-8.16,23.49-18.88,46.03-31.98,67.17-12.41,20.04-26.85,38.79-42.83,56.12-16.16,17.52-33.89,33.58-52.74,48.17-19.02,14.73-39.18,27.96-60.15,39.74-20.93,11.75-42.67,22.05-64.98,30.91-25.63,10.18-52.03,18.41-78.77,25.16-28.59,7.21-57.6,12.66-86.78,16.8-29.21,4.13-58.59,6.94-88.02,8.88-7.22.47-2.71-.08-9.93.29v-25c88.93-20.14,162.5-55.5,232.5-118.5,1-1,2-3,3-4,73-62,110-151,119-244,0-3,2-6,2-9,1.99-21.93,4.8-41.87,6.48-63.29Z"/>
      <path class="cls-5" d="m420.31,1082.71h-192c-16.08-30.9-19.75-39.02-26.23-73.24-4.22-22.33-4.15-45.28-8.12-67.66-4.19-23.65-12.82-46.26-19.2-69.41-9.36-34-13.87-69.11-18.35-104.08-5.12-39.95-10.24-79.91-15.36-119.86-7.58-59.2-15.18-118.51-17.55-178.15,4.21-.09,8.41-.18,12.62-.28,8.86-.22,17.72-.48,26.58-.79v.23c51.66,1.43,103,1.84,154.35.49v.39c4.46,88.56,10.8,131.46,17.69,181.34,5.51,39.9,10.24,79.91,15.36,119.86,4.48,34.97,8.99,70.08,18.35,104.08,6.38,23.15,15.01,45.76,19.2,69.41,3.96,22.38,3.89,45.33,8.12,67.66,6.47,34.22,8.46,39.11,24.54,70.01Z"/>
      <path class="cls-5" d="m228.31,1082.71H52.31c-5.96-11.45-6.49-13.12-11.98-24.8-9.64-20.53-17.89-41.9-21.84-64.31-3.97-22.52-1.67-33.45-6.18-55.89v-467c8.98.2,6.53.16,15.5.23,31.89.27,63.8.02,95.69-.63,2.37,59.64,9.97,118.95,17.55,178.15,5.12,39.95,10.24,79.91,15.36,119.86,4.48,34.97,8.99,70.08,18.35,104.08,6.38,23.15,15.01,45.76,19.2,69.41,3.97,22.38,3.9,45.33,8.12,67.66,6.48,34.22,10.15,42.34,26.23,73.24Z"/>
      <path class="cls-5" d="m52.31,1082.71H12.31v-145c4.51,22.44,2.21,33.37,6.18,55.89,3.95,22.41,12.2,43.78,21.84,64.31,5.49,11.68,6.02,13.35,11.98,24.8Z"/>
    </g>
    <g>
      <path class="cls-3" d="m12.31,470.71c8.98.2,6.53.16,15.5.23,31.89.27,63.8.02,95.69-.63,4.21-.09,8.41-.18,12.62-.28,8.86-.22,17.72-.48,26.58-.79,27.04-.96,54.07-2.44,81.03-4.78,35.51-3.09,70.92-7.67,105.9-14.54,34.42-6.75,68.47-15.69,101.49-27.54,27.42-9.84,54.07-21.82,79.56-35.92,25.3-14,49.46-30.11,71.88-48.38,22.3-18.18,42.88-38.52,60.93-60.95,17.9-22.25,33.26-46.57,45.24-72.51,14.32-31,23.46-64.1,29.53-97.63,6.31-34.86,9.42-70.21,12.09-105.51"/>
      <path class="cls-3" d="m317.06,470.35c4.45,88.56,10.79,131.46,17.68,181.34,5.51,39.9,10.24,79.91,15.36,119.86,4.48,34.97,8.99,70.08,18.35,104.08,6.38,23.15,15.01,45.76,19.2,69.41,3.96,22.38,3.89,45.33,8.12,67.66,6.47,34.22,8.46,39.11,24.54,70.01"/>
      <path class="cls-3" d="m123.37,467.12c.04,1.06.08,2.13.13,3.19,2.37,59.64,9.97,118.95,17.55,178.15,5.12,39.95,10.24,79.91,15.36,119.86,4.48,34.97,8.99,70.08,18.35,104.08,6.38,23.15,15.01,45.76,19.2,69.41,3.97,22.38,3.9,45.33,8.12,67.66,6.48,34.22,10.15,42.34,26.23,73.24"/>
      <path class="cls-1" d="m12.31,937.71c4.51,22.44,2.21,33.37,6.18,55.89,3.95,22.41,12.2,43.78,21.84,64.31,5.49,11.68,6.02,13.35,11.98,24.8"/>
      <path class="cls-3" d="m12.31,465.71c7.22-.37,2.71.18,9.93-.29,29.43-1.94,58.81-4.75,88.02-8.88,29.18-4.14,58.19-9.59,86.78-16.8,26.74-6.75,53.14-14.98,78.77-25.16,22.31-8.86,44.05-19.16,64.98-30.91,20.97-11.78,41.13-25.01,60.15-39.74,18.85-14.59,36.58-30.65,52.74-48.17,15.98-17.33,30.42-36.08,42.83-56.12,13.1-21.14,23.82-43.68,31.98-67.17,9.55-27.53,15.75-56.11,20.09-84.89,4.3-28.53,6.8-57.29,8.98-86.05.04-.43.07-.85.1-1.28"/>
      <path class="cls-3" d="m12.31,440.71c88.93-20.14,162.5-55.5,232.5-118.5,1-1,2-3,3-4,73-62,110-151,119-244,0-3,2-6,2-9,1.99-21.93,4.8-41.87,6.48-63.29,0-.07,0-.14.02-.21"/>
      <path class="cls-3" d="m12.31,351.71c57.72-37.71,91.5-75.5,123.5-138.5,34-67,46.65-137.54,52.5-210.5"/>
      <path class="cls-3" d="m933.31.71c-4.71,55.19-9.5,109.5-25.5,163.5-20,65-59,118-110,164-1,1-3,1-4,2-45,40-96,68-151,89-45.05,16.6-90.73,28.2-137.53,35.29-12.41,1.89-24.9,3.45-37.47,4.71-3,0-6.02,1.7-9,2-47.41,4.79-94.58,7.51-141.76,8.75-51.35,1.35-102.69.94-154.34-.49"/>
      <path class="cls-3" d="m505.31,454.71c2.23,60.71,3.88,125.26,11.6,185.52,5.12,39.95,10.24,79.91,15.36,119.86,4.48,34.97,8.99,70.08,18.35,104.08,6.38,23.15,15,45.76,19.2,69.41,3.96,22.38,3.89,45.33,8.12,67.66,6.47,34.22,14.29,50.57,30.37,81.47"/>
    </g>
  </g>
  <path class="cls-4" d="m416.92,561.5c14.3-6.78,26.97-16.68,38.35-27.57s21.79-22.71,31.67-34.87c10.95-13.48,20.72-27.71,27.41-43.8,6.61-15.88,9.46-33.25,6.77-50.32-2.23-14.15-9.25-28.04-19.73-37.86-11.75-11.01-27.9-16.75-43.99-15.22-8.56.81-17.06,3.18-24.45,7.69s-13.18,11.82-14.7,20.7c-2.51,14.65,2.27,30.23,10.15,42.57s18.25,21.66,30.38,28.75c13.65,7.98,28.9,12.14,44.57,13.65,17.25,1.66,34.79-.33,51.65-4.07,7.86-1.75,15.68-3.87,23.31-6.46s14.64-5.48,20.96-9.95c6.72-4.74,12.41-10.8,15.92-18.3s5.36-15.97,5.49-24.44-1.5-17.61-3.77-26.05c-1.13-4.2-2.43-8.34-3.77-12.48s-2.77-8.44-5.94-11.57c-3.87-3.81-9.04-4.51-14.24-4.42-4.23.07-8.51.64-12.64,1.56-7.84,1.75-15.45,5.09-22.27,9.33-14.21,8.84-25.16,21.7-34.39,35.47-4.47,6.68-8.64,13.6-12.56,20.62-4.2,7.53-7.99,15.37-10.64,23.59-5.01,15.56-5.33,33.59,3.1,48.07,7.6,13.07,21.65,20.97,36.19,23.82,7.39,1.45,14.91,1.9,22.41,1.33,9.06-.68,18.01-2.41,26.84-4.47,8.07-1.88,16.09-4,24.21-5.68,3.85-.8,6.43-5.54,5.24-9.23-1.32-4.07-5.1-6.09-9.23-5.24-14.2,2.94-28.12,7.24-42.51,9.19l1.99-.27c-7.62,1.01-15.27,1.3-22.9.3l1.99.27c-5.4-.74-10.71-2.08-15.75-4.18l1.79.76c-2.34-.99-4.61-2.14-6.77-3.47-1.02-.63-2-1.32-2.97-2.01s1.22.97.52.41c-.23-.19-.47-.37-.7-.56-.51-.42-1-.85-1.49-1.29-.88-.8-1.73-1.65-2.53-2.53-.44-.49-.87-.99-1.29-1.5-.2-.24-.9-1.15-.09-.09s.07.08-.07-.11c-1.65-2.28-3.01-4.75-4.12-7.34l.76,1.79c-1.51-3.61-2.49-7.4-3.03-11.27l.27,1.99c-.64-4.89-.58-9.82.06-14.7l-.27,1.99c.94-6.84,3.03-13.45,5.7-19.8l-.76,1.79c5.01-11.75,11.76-22.89,18.79-33.53,1.69-2.56,3.43-5.08,5.24-7.54.47-.65.95-1.29,1.44-1.93.31-.41,1.07-1.26-.24.31.28-.33.54-.69.81-1.03.99-1.25,2.01-2.49,3.05-3.71,3.98-4.66,8.32-9.03,13.1-12.88.27-.22.56-.42.82-.65-1.69,1.51-.47.36-.02.03.67-.5,1.35-.99,2.04-1.47,1.38-.96,2.78-1.88,4.22-2.75,2.92-1.77,5.97-3.34,9.11-4.69l-1.79.76c4.98-2.1,10.17-3.59,15.53-4.31l-1.99.27c3.39-.43,6.93-.67,10.34-.25l-1.99-.27c.69.11,1.34.26,2,.49l-1.79-.76c.29.12.58.25.85.4s.95.67-.03-.11c-1.42-1.12,1.22,1.53.13.1-.85-1.12.21.37.39.7.3.52.55,1.07.79,1.62l-.76-1.79c1.96,4.68,3.3,9.73,4.69,14.6,1.49,5.23,2.73,10.53,3.47,15.92l-.27-1.99c.75,5.69.91,11.41.17,17.11l.27-1.99c-.59,4.29-1.66,8.49-3.32,12.5l.76-1.79c-1.16,2.73-2.58,5.33-4.31,7.74-.34.47-1.25,1.34.2-.22-.23.25-.43.53-.64.79-.46.56-.95,1.1-1.44,1.63-.98,1.05-2.03,2.04-3.12,2.98-.49.43-1.02.81-1.51,1.24,1.69-1.48.72-.56.27-.23-.32.23-.64.46-.96.68-1.19.82-2.41,1.59-3.66,2.32-2.53,1.47-5.17,2.73-7.86,3.88l1.79-.76c-7.11,2.99-14.57,5.17-22.02,7.14-8.19,2.16-16.5,3.87-24.9,5.02l1.99-.27c-12.5,1.67-25.17,2.02-37.69.38l1.99.27c-8.92-1.21-17.7-3.4-26.01-6.89l1.79.76c-3.7-1.58-7.3-3.38-10.77-5.42-1.68-.99-3.32-2.03-4.93-3.13-.8-.55-1.6-1.11-2.38-1.68-.39-.29-.78-.58-1.17-.87s-1.06-.87.65.51c-.24-.19-.48-.37-.71-.56-3.06-2.43-5.96-5.07-8.65-7.91-1.35-1.43-2.65-2.91-3.89-4.44-.18-.22-1.31-1.66-.41-.5s-.21-.29-.38-.52c-.6-.81-1.18-1.63-1.75-2.46-2.45-3.61-4.55-7.44-6.26-11.46l.76,1.79c-2.08-4.94-3.53-10.12-4.26-15.43l.27,1.99c-.45-3.44-.55-6.91-.12-10.36l-.27,1.99c.32-2.35.9-4.64,1.81-6.83l-.76,1.79c.34-.78.71-1.54,1.14-2.28.2-.34.4-.68.62-1.01.16-.24,1.05-1.44.22-.38s.27-.3.45-.5c.27-.3.55-.6.84-.89.58-.58,1.2-1.1,1.82-1.64,1.15-.98-1.46,1.04-.22.18.34-.23.67-.47,1.01-.7.69-.46,1.39-.88,2.11-1.29,1.57-.89,3.19-1.66,4.85-2.37l-1.79.76c4.13-1.71,8.45-2.86,12.88-3.46l-1.99.27c4.56-.58,9.17-.58,13.73.03l-1.99-.27c4.26.6,8.41,1.7,12.38,3.35l-1.79-.76c3.17,1.35,6.2,3.02,9.01,5.01.4.28.8.58,1.2.87,1.16.84-1.45-1.18-.35-.27.67.55,1.33,1.09,1.98,1.66,1.24,1.1,2.43,2.26,3.57,3.47s2.18,2.51,3.24,3.79c-1.48-1.8-.61-.79-.28-.34.29.4.58.8.86,1.2.46.66.91,1.33,1.34,2.01,1.84,2.88,3.41,5.91,4.75,9.05l-.76-1.79c2.17,5.16,3.66,10.57,4.43,16.12l-.27-1.99c.9,6.78.81,13.63-.1,20.41l.27-1.99c-1.2,8.63-3.67,17.02-7.04,25.05l.76-1.79c-3.65,8.61-8.32,16.74-13.59,24.47-1.3,1.91-2.64,3.8-4.01,5.67-.66.9-1.34,1.8-2.01,2.7-.36.48-.73.95-1.09,1.43-.5.65.52-.67.49-.63-.27.36-.55.71-.83,1.06-2.87,3.66-5.83,7.24-8.85,10.78-11.52,13.51-23.52,26.87-37.34,38.09-.49.4-.99.8-1.49,1.19-.22.18-.44.35-.66.52-1.02.8,1.08-.82.35-.27-.95.72-1.91,1.45-2.88,2.15-1.99,1.45-4.02,2.85-6.09,4.18-4.21,2.72-8.58,5.17-13.11,7.31-1.61.77-2.99,2.82-3.45,4.48-.49,1.8-.27,4.19.76,5.78,2.36,3.66,6.46,4.49,10.26,2.69h0Z"/>
  <path class="cls-4" d="m7.51,478.88c64.65-4.71,129.44-7.54,194.26-8.46s129.66.04,194.42,2.91c35.58,1.57,71.79,5.54,107.07-1.32,3.98-.77,6.25-5.54,5.24-9.23-1.14-4.16-5.24-6.01-9.23-5.24-30.29,5.89-62.34,2.69-93.27,1.23s-64.12-2.56-96.2-3.15c-64.49-1.17-129.01-.47-193.45,2.11-36.31,1.45-72.6,3.51-108.84,6.14-3.9.28-7.69,3.25-7.5,7.5.17,3.82,3.31,7.8,7.5,7.5h0Z"/>
  <ellipse class="cls-2" cx="501.07" cy="463.09" rx="15.3" ry="19.41" transform="translate(-39.75 879.07) rotate(-80.31)"/>
</svg>