<?xml version="1.0" encoding="utf-8"?>
<!-- Generator: Adobe Adobe Illustrator 24.2.0, SVG Export Plug-In . SVG Version: 6.00 Build 0)  -->
<svg version="1.1" xmlns="http://www.w3.org/2000/svg" x="0px" y="0px"
	 viewBox="0 0 1920 1080" style="enable-background:new 0 0 1920 1080;" xml:space="preserve">
<style type="text/css">
	.st0{stroke:#000000;stroke-miterlimit:10;}
	.st1{stroke:#FF0000;stroke-miterlimit:10;}
	.st2{fill:#C32A2A;}
	.st3{fill:#FFFFFF;stroke:#FFFFFF;stroke-miterlimit:10;}
	.st4{fill:#CAAB55;stroke:#CAAB55;stroke-miterlimit:10;}
	.st5{font-family:'SourceSansPro-Regular';}
	.st6{font-size:48px;}
	.st7{display:none;}
	.st8{display:inline;fill:#FFFFFF;stroke:#FFFFFF;stroke-miterlimit:10;}
	.st9{fill:#00AC5F;}
	.st10{fill:none;stroke:#00B26E;stroke-miterlimit:10;}
</style>
<g id="Layer_1">
	<rect x="0" class="st0" width="1920" height="1080"/>
</g>
<g id="Layer_2">
	<g>
		<g>
			<path class="st2" d="M810-20.61c-0.67-8.83-2.31-17.63-4.19-26.4c-0.25-1.13-0.5-2.25-0.76-3.38
				c-3.02,12.49-4.43,25.07-6.87,37.59c-1.93,11.5-3.34,20.61-8.75,33.12c-3.93,8.73-9.13,17.26-14.97,25.62
				c-3.28,4.71-2.8,4.75-6.66,8.76c-8.61,8.72-20.2,16.34-28.72,25.1c-8.42,7.84-15.35,16.25-25.18,23.57
				c-0.82,0.59-2.43,1.74-2.9,2.06c-2.94,2.02-5.99,4-9.23,5.86c-5.46,3.03-11.16,5.92-16.5,9.03c-6.99,3.74-12.37,8.29-18.63,12.41
				c-6.5,4.5-13.89,8.53-21.76,12.23c-6.45,3.25-12.81,6.56-19.11,9.91c-8.45,5.19-17.38,10.1-26.86,14.67
				c-6.04,2.81-12.23,5.52-18.17,8.4c-8.72,4.46-17.76,8.69-27.01,12.77c-6.09,2.5-12.18,5-18.27,7.5
				c-5.9,2.66-11.73,5.38-17.61,8.07c-5.75,2.48-11.57,4.92-17.75,7.03c-7.86,2.58-15.97,4.9-23.53,7.77
				c-9.28,3.25-18.36,6.68-27.47,10.08c-13.82,4.43-27.85,8.65-41.85,12.89c-13.14,4.18-26.79,7.81-39.8,12.12
				c-8.42,3.07-16.68,6.31-25.57,8.94c-8.35,2.57-17.15,4.59-25.78,6.81c-11.27,2.96-16.96,4.11-28.99,6.49
				c-8.03,1.37-16.15,2.57-24.08,4.13c-13.62,2.59-27.17,5.3-40.94,7.62c-14.21,2.71-28.17,5.87-42.68,8.02
				c-8.5,1.37-17.08,2.58-25.62,3.85c-14.01,2.21-26.75,3.9-38.82,4.33c-14.66,0.62-29.38,0.31-44.06,0.57
				c-23.63,0.42-47.24,1.08-70.87,1.54c24.55,1.78,49.27,2.74,74.01,3.01c15.68,0.09,31.44,0.4,47.07-0.54
				c12.96-0.68,25.54-2.6,38.1-4.46c15.18-2.18,30.45-4.22,45.2-7.26c12.85-2.57,25.84-4.88,38.86-7.14
				c15.21-2.95,30.48-5.79,45.99-8.16c5.61-1.07,11.18-2.21,16.77-3.31c5.95-1.44,11.88-2.93,17.83-4.38
				c9.14-2.26,18.39-4.39,27.09-7.18c8.8-2.6,16.73-6.04,25.43-8.73c23.34-7.11,47.06-13.82,70.27-21.08
				c11.95-3.53,22.78-8.14,34.36-12.03c9.22-3.51,19.34-6.11,28.74-9.45c9.5-3.28,27.66-11.77,31.72-13.66
				c14.96-6.02,29.82-12.16,43.51-19.13c10.82-5.45,22.67-10.18,33.16-15.85c7.44-3.58,13.49-7.99,20.85-11.63
				c10.34-5.65,21.97-10.51,31.64-16.55c5.87-3.59,11.07-7.51,16.54-11.3c4.69-3.04,9.87-5.82,14.98-8.62
				c11.13-5.58,20.91-12.01,29.01-19.11c7.83-7.14,14.62-14.63,22.33-21.81c8.41-7.93,19.13-15,26.62-23.25
				c3.57-3.95,5.88-8.22,8.8-12.33c5.44-7.84,9.87-15.89,13.54-24.06c3.16-8,5.34-16.15,6.84-24.31
				C810.12-9.41,809.99-15.02,810-20.61z"/>
			<path class="st2" d="M251.65,1128.97c-1.5-9.49-1.01-19.19-1.32-28.79c-0.21-13.42-0.76-26.82-1.11-40.23
				c-0.72-22.18-1.25-44.39-3.01-66.5c-1.5-20.51-2.85-41.04-5.23-61.44c-2.05-17.65-2.87-35.47-4.37-53.19
				c-2.02-24.99-3.59-50.01-4.34-75.09c-0.47-15.39-1.11-30.77-2.22-46.11c-0.37-11.53-0.83-23.05-1.17-34.58
				c-0.86-44.69-0.25-89.41-0.63-134.11c0.02-11.32-0.19-22.66,0.36-33.97c0.39-12.21,1.54-24.37,2.18-36.57
				c0.44-12.84,0.14-25.69,0.76-38.52c0.5-11.4,0.24-22.82,0.62-34.22c1.07-24.14,0.18-48.32,0.5-72.48
				c0.92-30.92,2.54-61.86,1.4-92.82c-3.4,28.24-7.28,56.46-9.06,84.93c-0.73,19.34-0.37,38.73-0.61,58.08
				c-0.36,13.86-1.28,27.68-1.37,41.55c-0.25,8.39-0.63,16.77-1.08,25.14c-0.12,9.28-0.36,18.56-0.72,27.83
				c-0.93,13.94-2.4,27.82-2.91,41.8c-0.73,30.12-0.41,60.28-0.58,90.42c0.08,23.69-0.4,47.39,0.13,71.08
				c0.3,12.15,0.8,24.29,1.17,36.43c0.65,9.45,1.2,18.91,1.56,28.39c0.59,16.06,1.1,32.14,1.76,48.19
				c1.4,22.91,3.24,45.79,4.89,68.68c0.95,15.56,2.77,31,4.41,46.47c1.36,15.31,2.39,30.66,3.53,46c2.11,23.89,1.5,48.01,4.15,71.83
				c1.38,11.48,3.11,22.89,5.21,34.21c1.89,9.84,3.49,19.9,7.33,29C251.79,1129.92,251.72,1129.44,251.65,1128.97z"/>
		</g>
		<g>
			<path class="st2" d="M656.16-20.61c-0.54-8.83-1.87-17.63-3.4-26.4c-0.2-1.13-0.4-2.25-0.61-3.38
				c-2.44,12.49-3.59,25.07-5.57,37.59c-1.57,11.5-2.71,20.61-7.09,33.12c-3.19,8.73-7.39,17.26-12.13,25.62
				c-2.66,4.71-2.27,4.75-5.39,8.76c-6.97,8.72-16.37,16.34-23.26,25.1c-6.82,7.84-12.44,16.25-20.4,23.57
				c-0.67,0.59-1.97,1.74-2.35,2.06c-2.38,2.02-4.85,4-7.48,5.86c-4.42,3.03-9.04,5.92-13.36,9.03
				c-5.66,3.74-10.02,8.29-15.09,12.41c-5.27,4.5-11.25,8.53-17.63,12.23c-5.22,3.25-10.38,6.56-15.48,9.91
				c-6.84,5.19-14.08,10.1-21.76,14.67c-4.89,2.81-9.9,5.52-14.72,8.4c-7.06,4.46-14.38,8.69-21.88,12.77c-4.93,2.5-9.87,5-14.8,7.5
				c-4.78,2.66-9.5,5.38-14.26,8.07c-4.66,2.48-9.37,4.92-14.38,7.03c-6.37,2.58-12.94,4.9-19.06,7.77
				c-7.51,3.25-14.87,6.68-22.25,10.08c-11.2,4.43-22.56,8.65-33.9,12.89c-10.65,4.18-21.7,7.81-32.24,12.12
				c-6.82,3.07-13.51,6.31-20.71,8.94c-6.76,2.57-13.89,4.59-20.88,6.81c-9.13,2.96-13.74,4.11-23.49,6.49
				c-6.5,1.37-13.09,2.57-19.51,4.13c-11.03,2.59-22.01,5.3-33.17,7.62c-11.51,2.71-22.82,5.87-34.57,8.02
				c-6.89,1.37-13.83,2.58-20.76,3.85c-11.35,2.21-21.67,3.9-31.45,4.33c-11.88,0.62-23.8,0.31-35.69,0.57
				c-19.14,0.42-38.27,1.08-57.41,1.54c19.89,1.78,39.91,2.74,59.95,3.01c12.71,0.09,25.47,0.4,38.13-0.54
				c10.5-0.68,20.69-2.6,30.86-4.46c12.3-2.18,24.67-4.22,36.61-7.26c10.41-2.57,20.93-4.88,31.48-7.14
				c12.32-2.95,24.69-5.79,37.26-8.16c4.54-1.07,9.06-2.21,13.59-3.31c4.82-1.44,9.62-2.93,14.44-4.38
				c7.4-2.26,14.9-4.39,21.94-7.18c7.13-2.6,13.55-6.04,20.6-8.73c18.91-7.11,38.12-13.82,56.93-21.08
				c9.68-3.53,18.45-8.14,27.84-12.03c7.47-3.51,15.66-6.11,23.28-9.45c7.7-3.28,22.4-11.77,25.69-13.66
				c12.12-6.02,24.15-12.16,35.25-19.13c8.76-5.45,18.36-10.18,26.86-15.85c6.03-3.58,10.93-7.99,16.89-11.63
				c8.37-5.65,17.8-10.51,25.63-16.55c4.75-3.59,8.97-7.51,13.4-11.3c3.8-3.04,7.99-5.82,12.14-8.62
				c9.01-5.58,16.94-12.01,23.5-19.11c6.34-7.14,11.85-14.63,18.09-21.81c6.81-7.93,15.5-15,21.56-23.25
				c2.89-3.95,4.76-8.22,7.13-12.33c4.4-7.84,8-15.89,10.97-24.06c2.56-8,4.32-16.15,5.54-24.31
				C656.25-9.41,656.15-15.02,656.16-20.61z"/>
			<path class="st2" d="M203.85,1128.97c-1.22-9.49-0.82-19.19-1.07-28.79c-0.17-13.42-0.62-26.82-0.9-40.23
				c-0.58-22.18-1.02-44.39-2.44-66.5c-1.21-20.51-2.31-41.04-4.24-61.44c-1.66-17.65-2.32-35.47-3.54-53.19
				c-1.63-24.99-2.91-50.01-3.52-75.09c-0.38-15.39-0.9-30.77-1.8-46.11c-0.3-11.53-0.68-23.05-0.94-34.58
				c-0.7-44.69-0.2-89.41-0.51-134.11c0.01-11.32-0.16-22.66,0.3-33.97c0.32-12.21,1.24-24.37,1.77-36.57
				c0.36-12.84,0.11-25.69,0.61-38.52c0.41-11.4,0.19-22.82,0.5-34.22c0.87-24.14,0.15-48.32,0.4-72.48
				c0.75-30.92,2.05-61.86,1.13-92.82c-2.75,28.24-5.9,56.46-7.34,84.93c-0.59,19.34-0.3,38.73-0.49,58.08
				c-0.29,13.86-1.03,27.68-1.11,41.55c-0.2,8.39-0.51,16.77-0.88,25.14c-0.1,9.28-0.3,18.56-0.58,27.83
				c-0.75,13.94-1.94,27.82-2.35,41.8c-0.59,30.12-0.33,60.28-0.47,90.42c0.07,23.69-0.32,47.39,0.11,71.08
				c0.24,12.15,0.65,24.29,0.95,36.43c0.53,9.45,0.97,18.91,1.27,28.39c0.48,16.06,0.89,32.14,1.43,48.19
				c1.14,22.91,2.63,45.79,3.96,68.68c0.77,15.56,2.24,31,3.57,46.47c1.1,15.31,1.94,30.66,2.86,46
				c1.71,23.89,1.22,48.01,3.36,71.83c1.12,11.48,2.52,22.89,4.22,34.21c1.53,9.84,2.82,19.9,5.94,29
				C203.97,1129.92,203.91,1129.44,203.85,1128.97z"/>
		</g>
		<g>
			<path class="st2" d="M511.76-20.61c-0.42-8.83-1.46-17.63-2.65-26.4c-0.15-1.13-0.32-2.25-0.48-3.38
				c-1.91,12.49-2.8,25.07-4.34,37.59c-1.22,11.5-2.11,20.61-5.53,33.12c-2.49,8.73-5.77,17.26-9.46,25.62
				c-2.07,4.71-1.77,4.75-4.21,8.76c-5.44,8.72-12.77,16.34-18.15,25.1c-5.32,7.84-9.7,16.25-15.91,23.57
				c-0.52,0.59-1.54,1.74-1.83,2.06c-1.86,2.02-3.79,4-5.83,5.86c-3.45,3.03-7.05,5.92-10.42,9.03c-4.42,3.74-7.82,8.29-11.77,12.41
				c-4.11,4.5-8.78,8.53-13.75,12.23c-4.07,3.25-8.1,6.56-12.08,9.91c-5.34,5.19-10.98,10.1-16.97,14.67
				c-3.82,2.81-7.73,5.52-11.48,8.4c-5.51,4.46-11.22,8.69-17.07,12.77c-3.85,2.5-7.7,5-11.55,7.5c-3.73,2.66-7.41,5.38-11.12,8.07
				c-3.64,2.48-7.31,4.92-11.22,7.03c-4.97,2.58-10.09,4.9-14.87,7.77c-5.86,3.25-11.6,6.68-17.35,10.08
				c-8.73,4.43-17.59,8.65-26.44,12.89c-8.3,4.18-16.92,7.81-25.15,12.12c-5.32,3.07-10.54,6.31-16.15,8.94
				c-5.27,2.57-10.84,4.59-16.29,6.81c-7.12,2.96-10.72,4.11-18.32,6.49c-5.07,1.37-10.21,2.57-15.22,4.13
				c-8.61,2.59-17.17,5.3-25.87,7.62c-8.98,2.71-17.8,5.87-26.96,8.02c-5.37,1.37-10.79,2.58-16.19,3.85
				c-8.85,2.21-16.9,3.9-24.53,4.33c-9.26,0.62-18.56,0.31-27.84,0.57c-14.93,0.42-29.85,1.08-44.78,1.54
				c15.51,1.78,31.13,2.74,46.76,3.01c9.91,0.09,19.87,0.4,29.74-0.54c8.19-0.68,16.13-2.6,24.07-4.46
				c9.59-2.18,19.24-4.22,28.55-7.26c8.12-2.57,16.33-4.88,24.55-7.14c9.61-2.95,19.26-5.79,29.06-8.16
				c3.54-1.07,7.06-2.21,10.6-3.31c3.76-1.44,7.5-2.93,11.26-4.38c5.77-2.26,11.62-4.39,17.11-7.18c5.56-2.6,10.57-6.04,16.06-8.73
				c14.75-7.11,29.73-13.82,44.4-21.08c7.55-3.53,14.39-8.14,21.71-12.03c5.83-3.51,12.22-6.11,18.16-9.45
				c6-3.28,17.47-11.77,20.04-13.66c9.45-6.02,18.84-12.16,27.49-19.13c6.84-5.45,14.32-10.18,20.95-15.85
				c4.7-3.58,8.53-7.99,13.17-11.63c6.53-5.65,13.88-10.51,19.99-16.55c3.71-3.59,6.99-7.51,10.45-11.3
				c2.97-3.04,6.23-5.82,9.47-8.62c7.03-5.58,13.21-12.01,18.33-19.11c4.95-7.14,9.24-14.63,14.11-21.81
				c5.31-7.93,12.09-15,16.82-23.25c2.26-3.95,3.72-8.22,5.56-12.33c3.43-7.84,6.24-15.89,8.56-24.06c2-8,3.37-16.15,4.32-24.31
				C511.84-9.41,511.76-15.02,511.76-20.61z"/>
			<path class="st2" d="M158.99,1128.97c-0.95-9.49-0.64-19.19-0.83-28.79c-0.13-13.42-0.48-26.82-0.7-40.23
				c-0.46-22.18-0.79-44.39-1.9-66.5c-0.95-20.51-1.8-41.04-3.31-61.44c-1.3-17.65-1.81-35.47-2.76-53.19
				c-1.27-24.99-2.27-50.01-2.74-75.09c-0.3-15.39-0.7-30.77-1.41-46.11c-0.23-11.53-0.53-23.05-0.74-34.58
				c-0.55-44.69-0.16-89.41-0.4-134.11c0.01-11.32-0.12-22.66,0.23-33.97c0.25-12.21,0.97-24.37,1.38-36.57
				c0.28-12.84,0.09-25.69,0.48-38.52c0.32-11.4,0.15-22.82,0.39-34.22c0.68-24.14,0.12-48.32,0.31-72.48
				c0.58-30.92,1.6-61.86,0.88-92.82c-2.15,28.24-4.6,56.46-5.73,84.93c-0.46,19.34-0.24,38.73-0.38,58.08
				c-0.23,13.86-0.81,27.68-0.87,41.55c-0.16,8.39-0.4,16.77-0.68,25.14c-0.08,9.28-0.23,18.56-0.45,27.83
				c-0.59,13.94-1.52,27.82-1.84,41.8c-0.46,30.12-0.26,60.28-0.37,90.42c0.05,23.69-0.25,47.39,0.08,71.08
				c0.19,12.15,0.51,24.29,0.74,36.43c0.41,9.45,0.76,18.91,0.99,28.39c0.38,16.06,0.7,32.14,1.11,48.19
				c0.89,22.91,2.05,45.79,3.09,68.68c0.6,15.56,1.75,31,2.79,46.47c0.86,15.31,1.51,30.66,2.23,46
				c1.34,23.89,0.95,48.01,2.62,71.83c0.87,11.48,1.97,22.89,3.29,34.21c1.2,9.84,2.2,19.9,4.63,29
				C159.08,1129.92,159.04,1129.44,158.99,1128.97z"/>
		</g>
		<g>
			<path class="st2" d="M381.87-20.61c-0.31-8.83-1.09-17.63-1.98-26.4c-0.12-1.13-0.24-2.25-0.36-3.38
				c-1.42,12.49-2.09,25.07-3.24,37.59c-0.91,11.5-1.57,20.61-4.13,33.12c-1.85,8.73-4.3,17.26-7.06,25.62
				c-1.55,4.71-1.32,4.75-3.14,8.76c-4.06,8.72-9.53,16.34-13.54,25.1c-3.97,7.84-7.24,16.25-11.87,23.57
				c-0.39,0.59-1.15,1.74-1.37,2.06c-1.39,2.02-2.83,4-4.35,5.86c-2.57,3.03-5.26,5.92-7.78,9.03c-3.3,3.74-5.83,8.29-8.78,12.41
				c-3.07,4.5-6.55,8.53-10.26,12.23c-3.04,3.25-6.04,6.56-9.01,9.91c-3.98,5.19-8.19,10.1-12.66,14.67
				c-2.85,2.81-5.76,5.52-8.57,8.4c-4.11,4.46-8.37,8.69-12.73,12.77c-2.87,2.5-5.74,5-8.62,7.5c-2.78,2.66-5.53,5.38-8.3,8.07
				c-2.71,2.48-5.45,4.92-8.37,7.03c-3.71,2.58-7.53,4.9-11.09,7.77c-4.37,3.25-8.66,6.68-12.95,10.08
				c-6.52,4.43-13.13,8.65-19.73,12.89c-6.2,4.18-12.63,7.81-18.77,12.12c-3.97,3.07-7.86,6.31-12.05,8.94
				c-3.93,2.57-8.09,4.59-12.15,6.81c-5.31,2.96-8,4.11-13.67,6.49c-3.79,1.37-7.62,2.57-11.35,4.13c-6.42,2.59-12.81,5.3-19.3,7.62
				c-6.7,2.71-13.28,5.87-20.12,8.02c-4.01,1.37-8.05,2.58-12.08,3.85c-6.6,2.21-12.61,3.9-18.3,4.33
				c-6.91,0.62-13.85,0.31-20.77,0.57c-11.14,0.42-22.27,1.08-33.41,1.54c11.57,1.78,23.23,2.74,34.89,3.01
				c7.39,0.09,14.82,0.4,22.19-0.54c6.11-0.68,12.04-2.6,17.96-4.46c7.16-2.18,14.36-4.22,21.31-7.26
				c6.06-2.57,12.18-4.88,18.32-7.14c7.17-2.95,14.37-5.79,21.68-8.16c2.64-1.07,5.27-2.21,7.91-3.31c2.81-1.44,5.6-2.93,8.41-4.38
				c4.31-2.26,8.67-4.39,12.77-7.18c4.15-2.6,7.89-6.04,11.99-8.73c11-7.11,22.19-13.82,33.13-21.08
				c5.63-3.53,10.74-8.14,16.2-12.03c4.35-3.51,9.12-6.11,13.55-9.45c4.48-3.28,13.04-11.77,14.95-13.66
				c7.05-6.02,14.06-12.16,20.51-19.13c5.1-5.45,10.69-10.18,15.63-15.85c3.51-3.58,6.36-7.99,9.83-11.63
				c4.87-5.65,10.36-10.51,14.92-16.55c2.77-3.59,5.22-7.51,7.8-11.3c2.21-3.04,4.65-5.82,7.06-8.62
				c5.25-5.58,9.86-12.01,13.68-19.11c3.69-7.14,6.89-14.63,10.53-21.81c3.96-7.93,9.02-15,12.55-23.25
				c1.68-3.95,2.77-8.22,4.15-12.33c2.56-7.84,4.65-15.89,6.39-24.06c1.49-8,2.52-16.15,3.23-24.31
				C381.93-9.41,381.87-15.02,381.87-20.61z"/>
			<path class="st2" d="M118.64,1128.97c-0.71-9.49-0.48-19.19-0.62-28.79c-0.1-13.42-0.36-26.82-0.52-40.23
				c-0.34-22.18-0.59-44.39-1.42-66.5c-0.71-20.51-1.34-41.04-2.47-61.44c-0.97-17.65-1.35-35.47-2.06-53.19
				c-0.95-24.99-1.69-50.01-2.05-75.09c-0.22-15.39-0.52-30.77-1.05-46.11c-0.17-11.53-0.39-23.05-0.55-34.58
				c-0.41-44.69-0.12-89.41-0.3-134.11c0.01-11.32-0.09-22.66,0.17-33.97c0.18-12.21,0.72-24.37,1.03-36.57
				c0.21-12.84,0.07-25.69,0.36-38.52c0.24-11.4,0.11-22.82,0.29-34.22c0.5-24.14,0.09-48.32,0.23-72.48
				c0.43-30.92,1.2-61.86,0.66-92.82c-1.6,28.24-3.43,56.46-4.27,84.93c-0.35,19.34-0.18,38.73-0.29,58.08
				c-0.17,13.86-0.6,27.68-0.65,41.55c-0.12,8.39-0.3,16.77-0.51,25.14c-0.06,9.28-0.17,18.56-0.34,27.83
				c-0.44,13.94-1.13,27.82-1.37,41.8c-0.34,30.12-0.19,60.28-0.28,90.42c0.04,23.69-0.19,47.39,0.06,71.08
				c0.14,12.15,0.38,24.29,0.55,36.43c0.31,9.45,0.56,18.91,0.74,28.39c0.28,16.06,0.52,32.14,0.83,48.19
				c0.66,22.91,1.53,45.79,2.31,68.68c0.45,15.56,1.3,31,2.08,46.47c0.64,15.31,1.13,30.66,1.66,46c1,23.89,0.71,48.01,1.96,71.83
				c0.65,11.48,1.47,22.89,2.46,34.21c0.89,9.84,1.64,19.9,3.45,29C118.71,1129.92,118.67,1129.44,118.64,1128.97z"/>
		</g>
		<g>
			<path class="st2" d="M238.72-20.61c-0.2-8.83-0.68-17.63-1.24-26.4c-0.07-1.13-0.15-2.25-0.22-3.38
				c-0.89,12.49-1.3,25.07-2.03,37.59c-0.57,11.5-0.98,20.61-2.58,33.12c-1.16,8.73-2.69,17.26-4.41,25.62
				c-0.97,4.71-0.83,4.75-1.96,8.76c-2.54,8.72-5.95,16.34-8.46,25.1c-2.48,7.84-4.52,16.25-7.42,23.57
				c-0.24,0.59-0.72,1.74-0.85,2.06c-0.87,2.02-1.77,4-2.72,5.86c-1.61,3.03-3.29,5.92-4.86,9.03c-2.06,3.74-3.65,8.29-5.49,12.41
				c-1.92,4.5-4.09,8.53-6.41,12.23c-1.9,3.25-3.78,6.56-5.63,9.91c-2.49,5.19-5.12,10.1-7.92,14.67c-1.78,2.81-3.6,5.52-5.36,8.4
				c-2.57,4.46-5.23,8.69-7.96,12.77c-1.8,2.5-3.59,5-5.39,7.5c-1.74,2.66-3.46,5.38-5.19,8.07c-1.7,2.48-3.41,4.92-5.23,7.03
				c-2.32,2.58-4.71,4.9-6.94,7.77c-2.73,3.25-5.41,6.68-8.1,10.08c-4.07,4.43-8.21,8.65-12.33,12.89
				c-3.87,4.18-7.89,7.81-11.73,12.12c-2.48,3.07-4.92,6.31-7.53,8.94c-2.46,2.57-5.05,4.59-7.6,6.81c-3.32,2.96-5,4.11-8.54,6.49
				c-2.37,1.37-4.76,2.57-7.1,4.13c-4.01,2.59-8.01,5.3-12.07,7.62c-4.19,2.71-8.3,5.87-12.58,8.02c-2.51,1.37-5.03,2.58-7.55,3.85
				c-4.13,2.21-7.88,3.9-11.44,4.33c-4.32,0.62-8.66,0.31-12.99,0.57c-6.96,0.42-13.92,1.08-20.89,1.54
				c7.24,1.78,14.52,2.74,21.81,3.01c4.62,0.09,9.27,0.4,13.87-0.54c3.82-0.68,7.53-2.6,11.23-4.46c4.47-2.18,8.97-4.22,13.32-7.26
				c3.79-2.57,7.62-4.88,11.45-7.14c4.48-2.95,8.98-5.79,13.55-8.16c1.65-1.07,3.29-2.21,4.94-3.31c1.75-1.44,3.5-2.93,5.25-4.38
				c2.69-2.26,5.42-4.39,7.98-7.18c2.59-2.6,4.93-6.04,7.49-8.73c6.88-7.11,13.87-13.82,20.71-21.08
				c3.52-3.53,6.71-8.14,10.13-12.03c2.72-3.51,5.7-6.11,8.47-9.45c2.8-3.28,8.15-11.77,9.35-13.66
				c4.41-6.02,8.79-12.16,12.82-19.13c3.19-5.45,6.68-10.18,9.77-15.85c2.19-3.58,3.98-7.99,6.14-11.63
				c3.05-5.65,6.47-10.51,9.32-16.55c1.73-3.59,3.26-7.51,4.87-11.3c1.38-3.04,2.91-5.82,4.42-8.62c3.28-5.58,6.16-12.01,8.55-19.11
				c2.31-7.14,4.31-14.63,6.58-21.81c2.48-7.93,5.64-15,7.85-23.25c1.05-3.95,1.73-8.22,2.59-12.33c1.6-7.84,2.91-15.89,3.99-24.06
				c0.93-8,1.57-16.15,2.02-24.31C238.75-9.41,238.71-15.02,238.72-20.61z"/>
			<path class="st2" d="M74.16,1128.97c-0.44-9.49-0.3-19.19-0.39-28.79c-0.06-13.42-0.23-26.82-0.33-40.23
				c-0.21-22.18-0.37-44.39-0.89-66.5c-0.44-20.51-0.84-41.04-1.54-61.44c-0.61-17.65-0.85-35.47-1.29-53.19
				c-0.59-24.99-1.06-50.01-1.28-75.09c-0.14-15.39-0.33-30.77-0.66-46.11c-0.11-11.53-0.25-23.05-0.34-34.58
				c-0.25-44.69-0.07-89.41-0.19-134.11c0-11.32-0.06-22.66,0.11-33.97c0.12-12.21,0.45-24.37,0.64-36.57
				c0.13-12.84,0.04-25.69,0.22-38.52c0.15-11.4,0.07-22.82,0.18-34.22c0.32-24.14,0.05-48.32,0.15-72.48
				c0.27-30.92,0.75-61.86,0.41-92.82c-1,28.24-2.15,56.46-2.67,84.93c-0.22,19.34-0.11,38.73-0.18,58.08
				c-0.11,13.86-0.38,27.68-0.4,41.55c-0.07,8.39-0.19,16.77-0.32,25.14c-0.04,9.28-0.11,18.56-0.21,27.83
				c-0.27,13.94-0.71,27.82-0.86,41.8c-0.21,30.12-0.12,60.28-0.17,90.42c0.02,23.69-0.12,47.39,0.04,71.08
				c0.09,12.15,0.24,24.29,0.34,36.43c0.19,9.45,0.35,18.91,0.46,28.39c0.18,16.06,0.33,32.14,0.52,48.19
				c0.41,22.91,0.96,45.79,1.44,68.68c0.28,15.56,0.82,31,1.3,46.47c0.4,15.31,0.71,30.66,1.04,46c0.62,23.89,0.44,48.01,1.22,71.83
				c0.41,11.48,0.92,22.89,1.54,34.21c0.56,9.84,1.03,19.9,2.16,29C74.21,1129.92,74.19,1129.44,74.16,1128.97z"/>
		</g>
		<g>
			<path class="st2" d="M161.18-20.61c-0.13-8.83-0.46-17.63-0.83-26.4c-0.05-1.13-0.1-2.25-0.15-3.38
				c-0.6,12.49-0.88,25.07-1.37,37.59c-0.39,11.5-0.66,20.61-1.74,33.12c-0.78,8.73-1.82,17.26-2.98,25.62
				c-0.65,4.71-0.56,4.75-1.33,8.76c-1.71,8.72-4.02,16.34-5.71,25.1c-1.68,7.84-3.06,16.25-5.01,23.57
				c-0.16,0.59-0.48,1.74-0.58,2.06c-0.59,2.02-1.19,4-1.84,5.86c-1.09,3.03-2.22,5.92-3.28,9.03c-1.39,3.74-2.46,8.29-3.71,12.41
				c-1.29,4.5-2.76,8.53-4.33,12.23c-1.28,3.25-2.55,6.56-3.8,9.91c-1.68,5.19-3.46,10.1-5.35,14.67c-1.2,2.81-2.43,5.52-3.62,8.4
				c-1.73,4.46-3.53,8.69-5.38,12.77c-1.21,2.5-2.42,5-3.64,7.5c-1.17,2.66-2.33,5.38-3.5,8.07c-1.14,2.48-2.3,4.92-3.53,7.03
				c-1.56,2.58-3.18,4.9-4.68,7.77c-1.85,3.25-3.65,6.68-5.47,10.08c-2.75,4.43-5.54,8.65-8.33,12.89
				c-2.62,4.18-5.33,7.81-7.92,12.12c-1.68,3.07-3.32,6.31-5.09,8.94c-1.66,2.57-3.41,4.59-5.13,6.81
				c-2.24,2.96-3.38,4.11-5.77,6.49c-1.6,1.37-3.21,2.57-4.79,4.13c-2.71,2.59-5.41,5.3-8.15,7.62c-2.83,2.71-5.61,5.87-8.49,8.02
				c-1.69,1.37-3.4,2.58-5.1,3.85c-2.79,2.21-5.32,3.9-7.73,4.33c-2.92,0.62-5.85,0.31-8.77,0.57c-4.7,0.42-9.4,1.08-14.1,1.54
				c4.89,1.78,9.8,2.74,14.73,3.01c3.12,0.09,6.26,0.4,9.37-0.54c2.58-0.68,5.08-2.6,7.58-4.46c3.02-2.18,6.06-4.22,8.99-7.26
				c2.56-2.57,5.14-4.88,7.73-7.14c3.03-2.95,6.06-5.79,9.15-8.16c1.12-1.07,2.22-2.21,3.34-3.31c1.18-1.44,2.36-2.93,3.55-4.38
				c1.82-2.26,3.66-4.39,5.39-7.18c1.75-2.6,3.33-6.04,5.06-8.73c4.65-7.11,9.37-13.82,13.98-21.08c2.38-3.53,4.53-8.14,6.84-12.03
				c1.84-3.51,3.85-6.11,5.72-9.45c1.89-3.28,5.5-11.77,6.31-13.66c2.98-6.02,5.93-12.16,8.66-19.13c2.15-5.45,4.51-10.18,6.6-15.85
				c1.48-3.58,2.69-7.99,4.15-11.63c2.06-5.65,4.37-10.51,6.3-16.55c1.17-3.59,2.2-7.51,3.29-11.3c0.93-3.04,1.96-5.82,2.98-8.62
				c2.21-5.58,4.16-12.01,5.77-19.11c1.56-7.14,2.91-14.63,4.44-21.81c1.67-7.93,3.81-15,5.3-23.25c0.71-3.95,1.17-8.22,1.75-12.33
				c1.08-7.84,1.96-15.89,2.7-24.06c0.63-8,1.06-16.15,1.36-24.31C161.21-9.41,161.18-15.02,161.18-20.61z"/>
			<path class="st2" d="M50.08,1128.97c-0.3-9.49-0.2-19.19-0.26-28.79c-0.04-13.42-0.15-26.82-0.22-40.23
				c-0.14-22.18-0.25-44.39-0.6-66.5c-0.3-20.51-0.57-41.04-1.04-61.44c-0.41-17.65-0.57-35.47-0.87-53.19
				c-0.4-24.99-0.71-50.01-0.86-75.09c-0.09-15.39-0.22-30.77-0.44-46.11c-0.07-11.53-0.17-23.05-0.23-34.58
				c-0.17-44.69-0.05-89.41-0.13-134.11c0-11.32-0.04-22.66,0.07-33.97c0.08-12.21,0.31-24.37,0.43-36.57
				c0.09-12.84,0.03-25.69,0.15-38.52c0.1-11.4,0.05-22.82,0.12-34.22c0.21-24.14,0.04-48.32,0.1-72.48
				c0.18-30.92,0.5-61.86,0.28-92.82c-0.68,28.24-1.45,56.46-1.8,84.93c-0.15,19.34-0.07,38.73-0.12,58.08
				c-0.07,13.86-0.25,27.68-0.27,41.55c-0.05,8.39-0.13,16.77-0.22,25.14c-0.02,9.28-0.07,18.56-0.14,27.83
				c-0.18,13.94-0.48,27.82-0.58,41.8c-0.14,30.12-0.08,60.28-0.12,90.42c0.02,23.69-0.08,47.39,0.03,71.08
				c0.06,12.15,0.16,24.29,0.23,36.43c0.13,9.45,0.24,18.91,0.31,28.39c0.12,16.06,0.22,32.14,0.35,48.19
				c0.28,22.91,0.65,45.79,0.97,68.68c0.19,15.56,0.55,31,0.88,46.47c0.27,15.31,0.48,30.66,0.7,46c0.42,23.89,0.3,48.01,0.83,71.83
				c0.27,11.48,0.62,22.89,1.04,34.21c0.38,9.84,0.69,19.9,1.46,29C50.11,1129.92,50.09,1129.44,50.08,1128.97z"/>
		</g>
		<g>
			<path class="st2" d="M93.85-20.61c-0.08-8.83-0.27-17.63-0.49-26.4c-0.03-1.13-0.06-2.25-0.09-3.38
				c-0.35,12.49-0.51,25.07-0.8,37.59C92.26-1.3,92.1,7.8,91.47,20.31c-0.46,8.73-1.06,17.26-1.73,25.62
				c-0.38,4.71-0.32,4.75-0.77,8.76c-1,8.72-2.34,16.34-3.33,25.1c-0.98,7.84-1.78,16.25-2.92,23.57c-0.1,0.59-0.28,1.74-0.34,2.06
				c-0.34,2.02-0.69,4-1.07,5.86c-0.63,3.03-1.29,5.92-1.91,9.03c-0.81,3.74-1.43,8.29-2.16,12.41c-0.75,4.5-1.61,8.53-2.52,12.23
				c-0.75,3.25-1.48,6.56-2.21,9.91c-0.98,5.19-2.01,10.1-3.11,14.67c-0.7,2.81-1.42,5.52-2.11,8.4c-1.01,4.46-2.06,8.69-3.13,12.77
				c-0.71,2.5-1.41,5-2.12,7.5c-0.68,2.66-1.36,5.38-2.04,8.07c-0.67,2.48-1.34,4.92-2.06,7.03c-0.91,2.58-1.85,4.9-2.73,7.77
				c-1.07,3.25-2.13,6.68-3.18,10.08c-1.6,4.43-3.23,8.65-4.85,12.89c-1.52,4.18-3.1,7.81-4.61,12.12
				c-0.98,3.07-1.93,6.31-2.96,8.94c-0.97,2.57-1.99,4.59-2.99,6.81c-1.31,2.96-1.97,4.11-3.36,6.49c-0.93,1.37-1.87,2.57-2.79,4.13
				c-1.58,2.59-3.15,5.3-4.74,7.62c-1.65,2.71-3.26,5.87-4.95,8.02c-0.98,1.37-1.98,2.58-2.97,3.85c-1.62,2.21-3.1,3.9-4.5,4.33
				c-1.7,0.62-3.4,0.31-5.11,0.57c-2.74,0.42-5.47,1.08-8.21,1.54c2.84,1.78,5.71,2.74,8.58,3.01c1.82,0.09,3.64,0.4,5.45-0.54
				c1.5-0.68,2.96-2.6,4.41-4.46c1.76-2.18,3.53-4.22,5.24-7.26c1.49-2.57,2.99-4.88,4.5-7.14c1.76-2.95,3.53-5.79,5.33-8.16
				c0.65-1.07,1.3-2.21,1.94-3.31c0.69-1.44,1.38-2.93,2.07-4.38c1.06-2.26,2.13-4.39,3.14-7.18c1.02-2.6,1.94-6.04,2.95-8.73
				c2.7-7.11,5.45-13.82,8.14-21.08c1.38-3.53,2.64-8.14,3.98-12.03c1.07-3.51,2.24-6.11,3.33-9.45c1.1-3.28,3.2-11.77,3.67-13.66
				c1.73-6.02,3.45-12.16,5.04-19.13c1.25-5.45,2.63-10.18,3.84-15.85c0.86-3.58,1.56-7.99,2.42-11.63
				c1.2-5.65,2.55-10.51,3.67-16.55c0.68-3.59,1.28-7.51,1.92-11.3c0.54-3.04,1.14-5.82,1.74-8.62c1.29-5.58,2.42-12.01,3.36-19.11
				c0.91-7.14,1.69-14.63,2.59-21.81c0.97-7.93,2.22-15,3.08-23.25c0.41-3.95,0.68-8.22,1.02-12.33c0.63-7.84,1.14-15.89,1.57-24.06
				c0.37-8,0.62-16.15,0.79-24.31C93.87-9.41,93.85-15.02,93.85-20.61z"/>
			<path class="st2" d="M29.16,1128.97c-0.17-9.49-0.12-19.19-0.15-28.79c-0.02-13.42-0.09-26.82-0.13-40.23
				c-0.08-22.18-0.15-44.39-0.35-66.5c-0.17-20.51-0.33-41.04-0.61-61.44c-0.24-17.65-0.33-35.47-0.51-53.19
				c-0.23-24.99-0.42-50.01-0.5-75.09c-0.05-15.39-0.13-30.77-0.26-46.11c-0.04-11.53-0.1-23.05-0.14-34.58
				c-0.1-44.69-0.03-89.41-0.07-134.11c0-11.32-0.02-22.66,0.04-33.97c0.05-12.21,0.18-24.37,0.25-36.57
				c0.05-12.84,0.02-25.69,0.09-38.52c0.06-11.4,0.03-22.82,0.07-34.22c0.12-24.14,0.02-48.32,0.06-72.48
				c0.11-30.92,0.29-61.86,0.16-92.82c-0.39,28.24-0.84,56.46-1.05,84.93c-0.09,19.34-0.04,38.73-0.07,58.08
				c-0.04,13.86-0.15,27.68-0.16,41.55c-0.03,8.39-0.07,16.77-0.13,25.14c-0.01,9.28-0.04,18.56-0.08,27.83
				c-0.11,13.94-0.28,27.82-0.34,41.8c-0.08,30.12-0.05,60.28-0.07,90.42c0.01,23.69-0.05,47.39,0.02,71.08
				c0.03,12.15,0.09,24.29,0.14,36.43c0.08,9.45,0.14,18.91,0.18,28.39c0.07,16.06,0.13,32.14,0.2,48.19
				c0.16,22.91,0.38,45.79,0.57,68.68c0.11,15.56,0.32,31,0.51,46.47c0.16,15.31,0.28,30.66,0.41,46
				c0.24,23.89,0.17,48.01,0.48,71.83c0.16,11.48,0.36,22.89,0.6,34.21c0.22,9.84,0.4,19.9,0.85,29
				C29.18,1129.92,29.17,1129.44,29.16,1128.97z"/>
		</g>
		<g>
			<path class="st2" d="M46.93-20.61c-0.04-8.83-0.13-17.63-0.24-26.4c-0.01-1.13-0.03-2.25-0.04-3.38
				c-0.17,12.49-0.26,25.07-0.4,37.59C46.13-1.3,46.05,7.8,45.73,20.31c-0.23,8.73-0.53,17.26-0.87,25.62
				c-0.19,4.71-0.16,4.75-0.39,8.76c-0.5,8.72-1.17,16.34-1.66,25.1c-0.49,7.84-0.89,16.25-1.46,23.57
				c-0.05,0.59-0.14,1.74-0.17,2.06c-0.17,2.02-0.35,4-0.53,5.86c-0.32,3.03-0.65,5.92-0.96,9.03c-0.41,3.74-0.72,8.29-1.08,12.41
				c-0.38,4.5-0.8,8.53-1.26,12.23c-0.37,3.25-0.74,6.56-1.11,9.91c-0.49,5.19-1.01,10.1-1.56,14.67c-0.35,2.81-0.71,5.52-1.05,8.4
				c-0.51,4.46-1.03,8.69-1.56,12.77c-0.35,2.5-0.71,5-1.06,7.5c-0.34,2.66-0.68,5.38-1.02,8.07c-0.33,2.48-0.67,4.92-1.03,7.03
				c-0.46,2.58-0.93,4.9-1.36,7.77c-0.54,3.25-1.06,6.68-1.59,10.08c-0.8,4.43-1.61,8.65-2.42,12.89
				c-0.76,4.18-1.55,7.81-2.31,12.12c-0.49,3.07-0.97,6.31-1.48,8.94c-0.48,2.57-0.99,4.59-1.49,6.81
				c-0.65,2.96-0.98,4.11-1.68,6.49c-0.47,1.37-0.94,2.57-1.4,4.13c-0.79,2.59-1.57,5.3-2.37,7.62c-0.82,2.71-1.63,5.87-2.47,8.02
				c-0.49,1.37-0.99,2.58-1.48,3.85c-0.81,2.21-1.55,3.9-2.25,4.33c-0.85,0.62-1.7,0.31-2.55,0.57c-1.37,0.42-2.74,1.08-4.11,1.54
				c1.42,1.78,2.85,2.74,4.29,3.01c0.91,0.09,1.82,0.4,2.73-0.54c0.75-0.68,1.48-2.6,2.21-4.46c0.88-2.18,1.76-4.22,2.62-7.26
				c0.74-2.57,1.5-4.88,2.25-7.14c0.88-2.95,1.77-5.79,2.66-8.16c0.32-1.07,0.65-2.21,0.97-3.31c0.34-1.44,0.69-2.93,1.03-4.38
				c0.53-2.26,1.07-4.39,1.57-7.18c0.51-2.6,0.97-6.04,1.47-8.73c1.35-7.11,2.73-13.82,4.07-21.08c0.69-3.53,1.32-8.14,1.99-12.03
				c0.53-3.51,1.12-6.11,1.66-9.45c0.55-3.28,1.6-11.77,1.84-13.66c0.87-6.02,1.73-12.16,2.52-19.13
				c0.63-5.45,1.31-10.18,1.92-15.85c0.43-3.58,0.78-7.99,1.21-11.63c0.6-5.65,1.27-10.51,1.83-16.55c0.34-3.59,0.64-7.51,0.96-11.3
				c0.27-3.04,0.57-5.82,0.87-8.62c0.64-5.58,1.21-12.01,1.68-19.11c0.45-7.14,0.85-14.63,1.29-21.81c0.49-7.93,1.11-15,1.54-23.25
				c0.21-3.95,0.34-8.22,0.51-12.33c0.31-7.84,0.57-15.89,0.78-24.06c0.18-8,0.31-16.15,0.4-24.31
				C46.93-9.41,46.93-15.02,46.93-20.61z"/>
			<path class="st2" d="M14.58,1128.97c-0.09-9.49-0.06-19.19-0.08-28.79c-0.01-13.42-0.04-26.82-0.06-40.23
				c-0.04-22.18-0.07-44.39-0.17-66.5c-0.09-20.51-0.16-41.04-0.3-61.44c-0.12-17.65-0.17-35.47-0.25-53.19
				c-0.12-24.99-0.21-50.01-0.25-75.09c-0.03-15.39-0.06-30.77-0.13-46.11c-0.02-11.53-0.05-23.05-0.07-34.58
				c-0.05-44.69-0.01-89.41-0.04-134.11c0-11.32-0.01-22.66,0.02-33.97c0.02-12.21,0.09-24.37,0.13-36.57
				c0.03-12.84,0.01-25.69,0.04-38.52c0.03-11.4,0.01-22.82,0.04-34.22c0.06-24.14,0.01-48.32,0.03-72.48
				c0.05-30.92,0.15-61.86,0.08-92.82c-0.2,28.24-0.42,56.46-0.53,84.93c-0.04,19.34-0.02,38.73-0.04,58.08
				c-0.02,13.86-0.07,27.68-0.08,41.55c-0.01,8.39-0.04,16.77-0.06,25.14c-0.01,9.28-0.02,18.56-0.04,27.83
				c-0.05,13.94-0.14,27.82-0.17,41.8c-0.04,30.12-0.02,60.28-0.03,90.42c0,23.69-0.02,47.39,0.01,71.08
				c0.02,12.15,0.05,24.29,0.07,36.43c0.04,9.45,0.07,18.91,0.09,28.39c0.03,16.06,0.06,32.14,0.1,48.19
				c0.08,22.91,0.19,45.79,0.28,68.68c0.06,15.56,0.16,31,0.26,46.47c0.08,15.31,0.14,30.66,0.2,46
				c0.12,23.89,0.09,48.01,0.24,71.83c0.08,11.48,0.18,22.89,0.3,34.21c0.11,9.84,0.2,19.9,0.42,29
				C14.59,1129.92,14.58,1129.44,14.58,1128.97z"/>
		</g>
	</g>
	<g>
		<g>
			<path class="st2" d="M1111.62-20.61c0.67-8.83,2.31-17.63,4.19-26.4c0.25-1.13,0.5-2.25,0.76-3.38
				c3.02,12.49,4.43,25.07,6.87,37.59c1.93,11.5,3.34,20.61,8.75,33.12c3.93,8.73,9.13,17.26,14.97,25.62
				c3.28,4.71,2.8,4.75,6.66,8.76c8.61,8.72,20.2,16.34,28.72,25.1c8.42,7.84,15.35,16.25,25.18,23.57c0.82,0.59,2.43,1.74,2.9,2.06
				c2.94,2.02,5.99,4,9.23,5.86c5.46,3.03,11.16,5.92,16.5,9.03c6.99,3.74,12.37,8.29,18.63,12.41c6.5,4.5,13.89,8.53,21.76,12.23
				c6.45,3.25,12.81,6.56,19.11,9.91c8.45,5.19,17.38,10.1,26.86,14.67c6.04,2.81,12.23,5.52,18.17,8.4
				c8.72,4.46,17.76,8.69,27.01,12.77c6.09,2.5,12.18,5,18.27,7.5c5.9,2.66,11.73,5.38,17.61,8.07c5.75,2.48,11.57,4.92,17.75,7.03
				c7.86,2.58,15.97,4.9,23.53,7.77c9.28,3.25,18.36,6.68,27.47,10.08c13.82,4.43,27.85,8.65,41.85,12.89
				c13.14,4.18,26.79,7.81,39.8,12.12c8.42,3.07,16.68,6.31,25.57,8.94c8.35,2.57,17.15,4.59,25.78,6.81
				c11.27,2.96,16.96,4.11,28.99,6.49c8.03,1.37,16.15,2.57,24.08,4.13c13.62,2.59,27.17,5.3,40.94,7.62
				c14.21,2.71,28.17,5.87,42.68,8.02c8.5,1.37,17.08,2.58,25.62,3.85c14.01,2.21,26.75,3.9,38.82,4.33
				c14.66,0.62,29.38,0.31,44.06,0.57c23.63,0.42,47.24,1.08,70.87,1.54c-24.55,1.78-49.27,2.74-74.01,3.01
				c-15.68,0.09-31.44,0.4-47.07-0.54c-12.96-0.68-25.54-2.6-38.1-4.46c-15.18-2.18-30.45-4.22-45.2-7.26
				c-12.85-2.57-25.84-4.88-38.86-7.14c-15.21-2.95-30.48-5.79-45.99-8.16c-5.61-1.07-11.18-2.21-16.77-3.31
				c-5.95-1.44-11.88-2.93-17.83-4.38c-9.14-2.26-18.39-4.39-27.09-7.18c-8.8-2.6-16.73-6.04-25.43-8.73
				c-23.34-7.11-47.06-13.82-70.27-21.08c-11.95-3.53-22.78-8.14-34.36-12.03c-9.22-3.51-19.34-6.11-28.74-9.45
				c-9.5-3.28-27.66-11.77-31.72-13.66c-14.96-6.02-29.82-12.16-43.51-19.13c-10.82-5.45-22.67-10.18-33.16-15.85
				c-7.44-3.58-13.49-7.99-20.85-11.63c-10.34-5.65-21.97-10.51-31.64-16.55c-5.87-3.59-11.07-7.51-16.54-11.3
				c-4.69-3.04-9.87-5.82-14.98-8.62c-11.13-5.58-20.91-12.01-29.01-19.11c-7.83-7.14-14.62-14.63-22.33-21.81
				c-8.41-7.93-19.13-15-26.62-23.25c-3.57-3.95-5.88-8.22-8.8-12.33c-5.44-7.84-9.87-15.89-13.54-24.06
				c-3.16-8-5.34-16.15-6.84-24.31C1111.5-9.41,1111.63-15.02,1111.62-20.61z"/>
			<path class="st2" d="M1669.97,1128.97c1.5-9.49,1.01-19.19,1.32-28.79c0.21-13.42,0.76-26.82,1.11-40.23
				c0.72-22.18,1.25-44.39,3.01-66.5c1.5-20.51,2.85-41.04,5.23-61.44c2.05-17.65,2.87-35.47,4.37-53.19
				c2.02-24.99,3.59-50.01,4.34-75.09c0.47-15.39,1.11-30.77,2.22-46.11c0.37-11.53,0.83-23.05,1.17-34.58
				c0.86-44.69,0.25-89.41,0.63-134.11c-0.02-11.32,0.19-22.66-0.36-33.97c-0.39-12.21-1.54-24.37-2.18-36.57
				c-0.44-12.84-0.14-25.69-0.76-38.52c-0.5-11.4-0.24-22.82-0.62-34.22c-1.07-24.14-0.18-48.32-0.5-72.48
				c-0.92-30.92-2.54-61.86-1.4-92.82c3.4,28.24,7.28,56.46,9.06,84.93c0.73,19.34,0.37,38.73,0.61,58.08
				c0.36,13.86,1.28,27.68,1.37,41.55c0.25,8.39,0.63,16.77,1.08,25.14c0.12,9.28,0.36,18.56,0.72,27.83
				c0.93,13.94,2.4,27.82,2.91,41.8c0.73,30.12,0.41,60.28,0.58,90.42c-0.08,23.69,0.4,47.39-0.13,71.08
				c-0.3,12.15-0.8,24.29-1.17,36.43c-0.65,9.45-1.2,18.91-1.56,28.39c-0.59,16.06-1.1,32.14-1.76,48.19
				c-1.4,22.91-3.24,45.79-4.89,68.68c-0.95,15.56-2.77,31-4.41,46.47c-1.36,15.31-2.39,30.66-3.53,46
				c-2.11,23.89-1.5,48.01-4.15,71.83c-1.38,11.48-3.11,22.89-5.21,34.21c-1.89,9.84-3.49,19.9-7.33,29
				C1669.82,1129.92,1669.9,1129.44,1669.97,1128.97z"/>
		</g>
		<g>
			<path class="st2" d="M1265.47-20.61c0.54-8.83,1.87-17.63,3.4-26.4c0.2-1.13,0.4-2.25,0.61-3.38
				c2.44,12.49,3.59,25.07,5.57,37.59c1.57,11.5,2.71,20.61,7.09,33.12c3.19,8.73,7.39,17.26,12.13,25.62
				c2.65,4.71,2.27,4.75,5.39,8.76c6.97,8.72,16.37,16.34,23.26,25.1c6.82,7.84,12.44,16.25,20.4,23.57
				c0.67,0.59,1.97,1.74,2.35,2.06c2.38,2.02,4.85,4,7.48,5.86c4.42,3.03,9.04,5.92,13.36,9.03c5.66,3.74,10.02,8.29,15.09,12.41
				c5.27,4.5,11.25,8.53,17.63,12.23c5.22,3.25,10.38,6.56,15.48,9.91c6.84,5.19,14.08,10.1,21.76,14.67
				c4.89,2.81,9.9,5.52,14.72,8.4c7.06,4.46,14.38,8.69,21.88,12.77c4.93,2.5,9.87,5,14.8,7.5c4.78,2.66,9.5,5.38,14.26,8.07
				c4.66,2.48,9.37,4.92,14.38,7.03c6.37,2.58,12.94,4.9,19.06,7.77c7.51,3.25,14.87,6.68,22.25,10.08
				c11.2,4.43,22.56,8.65,33.9,12.89c10.65,4.18,21.7,7.81,32.24,12.12c6.82,3.07,13.51,6.31,20.71,8.94
				c6.76,2.57,13.89,4.59,20.88,6.81c9.13,2.96,13.74,4.11,23.49,6.49c6.5,1.37,13.09,2.57,19.51,4.13
				c11.03,2.59,22.01,5.3,33.17,7.62c11.51,2.71,22.82,5.87,34.57,8.02c6.89,1.37,13.83,2.58,20.76,3.85
				c11.35,2.21,21.67,3.9,31.45,4.33c11.88,0.62,23.8,0.31,35.69,0.57c19.14,0.42,38.27,1.08,57.41,1.54
				c-19.89,1.78-39.91,2.74-59.95,3.01c-12.7,0.09-25.47,0.4-38.13-0.54c-10.5-0.68-20.69-2.6-30.86-4.46
				c-12.3-2.18-24.67-4.22-36.61-7.26c-10.41-2.57-20.93-4.88-31.48-7.14c-12.32-2.95-24.69-5.79-37.26-8.16
				c-4.54-1.07-9.05-2.21-13.59-3.31c-4.82-1.44-9.62-2.93-14.44-4.38c-7.4-2.26-14.9-4.39-21.94-7.18
				c-7.13-2.6-13.55-6.04-20.6-8.73c-18.91-7.11-38.12-13.82-56.93-21.08c-9.68-3.53-18.45-8.14-27.83-12.03
				c-7.47-3.51-15.66-6.11-23.28-9.45c-7.7-3.28-22.4-11.77-25.69-13.66c-12.12-6.02-24.15-12.16-35.25-19.13
				c-8.76-5.45-18.36-10.18-26.86-15.85c-6.03-3.58-10.93-7.99-16.89-11.63c-8.37-5.65-17.79-10.51-25.63-16.55
				c-4.75-3.59-8.97-7.51-13.4-11.3c-3.8-3.04-7.99-5.82-12.14-8.62c-9.01-5.58-16.94-12.01-23.5-19.11
				c-6.34-7.14-11.85-14.63-18.09-21.81c-6.81-7.93-15.5-15-21.56-23.25c-2.89-3.95-4.76-8.22-7.13-12.33
				c-4.4-7.84-8-15.89-10.97-24.06c-2.56-8-4.32-16.15-5.54-24.31C1265.37-9.41,1265.47-15.02,1265.47-20.61z"/>
			<path class="st2" d="M1717.76,1128.97c1.22-9.49,0.82-19.19,1.07-28.79c0.17-13.42,0.62-26.82,0.9-40.23
				c0.58-22.18,1.02-44.39,2.44-66.5c1.21-20.51,2.31-41.04,4.24-61.44c1.66-17.65,2.32-35.47,3.54-53.19
				c1.63-24.99,2.91-50.01,3.52-75.09c0.38-15.39,0.9-30.77,1.8-46.11c0.3-11.53,0.68-23.05,0.94-34.58
				c0.7-44.69,0.2-89.41,0.51-134.11c-0.01-11.32,0.16-22.66-0.3-33.97c-0.32-12.21-1.24-24.37-1.77-36.57
				c-0.36-12.84-0.11-25.69-0.61-38.52c-0.41-11.4-0.19-22.82-0.5-34.22c-0.87-24.14-0.15-48.32-0.4-72.48
				c-0.75-30.92-2.05-61.86-1.13-92.82c2.75,28.24,5.9,56.46,7.34,84.93c0.59,19.34,0.3,38.73,0.49,58.08
				c0.29,13.86,1.03,27.68,1.11,41.55c0.2,8.39,0.51,16.77,0.88,25.14c0.1,9.28,0.3,18.56,0.58,27.83
				c0.75,13.94,1.94,27.82,2.35,41.8c0.59,30.12,0.33,60.28,0.47,90.42c-0.07,23.69,0.32,47.39-0.11,71.08
				c-0.24,12.15-0.65,24.29-0.95,36.43c-0.53,9.45-0.97,18.91-1.27,28.39c-0.48,16.06-0.89,32.14-1.43,48.19
				c-1.14,22.91-2.63,45.79-3.96,68.68c-0.77,15.56-2.24,31-3.57,46.47c-1.1,15.31-1.94,30.66-2.86,46
				c-1.71,23.89-1.22,48.01-3.36,71.83c-1.12,11.48-2.52,22.89-4.22,34.21c-1.53,9.84-2.82,19.9-5.94,29
				C1717.65,1129.92,1717.71,1129.44,1717.76,1128.97z"/>
		</g>
		<g>
			<path class="st2" d="M1409.86-20.61c0.42-8.83,1.46-17.63,2.65-26.4c0.16-1.13,0.32-2.25,0.48-3.38
				c1.91,12.49,2.8,25.07,4.34,37.59c1.22,11.5,2.11,20.61,5.53,33.12c2.49,8.73,5.77,17.26,9.46,25.62
				c2.07,4.71,1.77,4.75,4.21,8.76c5.44,8.72,12.77,16.34,18.15,25.1c5.32,7.84,9.7,16.25,15.91,23.57
				c0.52,0.59,1.54,1.74,1.83,2.06c1.86,2.02,3.79,4,5.83,5.86c3.45,3.03,7.05,5.92,10.42,9.03c4.42,3.74,7.82,8.29,11.77,12.41
				c4.11,4.5,8.78,8.53,13.75,12.23c4.07,3.25,8.1,6.56,12.08,9.91c5.34,5.19,10.98,10.1,16.97,14.67c3.82,2.81,7.73,5.52,11.48,8.4
				c5.51,4.46,11.22,8.69,17.07,12.77c3.85,2.5,7.7,5,11.55,7.5c3.73,2.66,7.41,5.38,11.12,8.07c3.64,2.48,7.31,4.92,11.22,7.03
				c4.97,2.58,10.09,4.9,14.87,7.77c5.86,3.25,11.6,6.68,17.35,10.08c8.73,4.43,17.59,8.65,26.44,12.89
				c8.3,4.18,16.92,7.81,25.15,12.12c5.32,3.07,10.54,6.31,16.15,8.94c5.27,2.57,10.84,4.59,16.29,6.81
				c7.12,2.96,10.72,4.11,18.32,6.49c5.07,1.37,10.21,2.57,15.22,4.13c8.61,2.59,17.17,5.3,25.87,7.62
				c8.98,2.71,17.8,5.87,26.96,8.02c5.37,1.37,10.79,2.58,16.19,3.85c8.85,2.21,16.9,3.9,24.53,4.33
				c9.26,0.62,18.56,0.31,27.84,0.57c14.93,0.42,29.85,1.08,44.78,1.54c-15.51,1.78-31.13,2.74-46.76,3.01
				c-9.91,0.09-19.86,0.4-29.74-0.54c-8.19-0.68-16.13-2.6-24.07-4.46c-9.59-2.18-19.24-4.22-28.55-7.26
				c-8.12-2.57-16.33-4.88-24.55-7.14c-9.61-2.95-19.26-5.79-29.06-8.16c-3.54-1.07-7.06-2.21-10.6-3.31
				c-3.76-1.44-7.51-2.93-11.26-4.38c-5.77-2.26-11.62-4.39-17.11-7.18c-5.56-2.6-10.57-6.04-16.06-8.73
				c-14.75-7.11-29.73-13.82-44.4-21.08c-7.55-3.53-14.39-8.14-21.71-12.03c-5.83-3.51-12.22-6.11-18.16-9.45
				c-6-3.28-17.47-11.77-20.04-13.66c-9.45-6.02-18.84-12.16-27.49-19.13c-6.84-5.45-14.32-10.18-20.95-15.85
				c-4.7-3.58-8.53-7.99-13.17-11.63c-6.53-5.65-13.88-10.51-19.99-16.55c-3.71-3.59-6.99-7.51-10.45-11.3
				c-2.97-3.04-6.23-5.82-9.47-8.62c-7.03-5.58-13.21-12.01-18.33-19.11c-4.95-7.14-9.24-14.63-14.11-21.81
				c-5.31-7.93-12.09-15-16.82-23.25c-2.26-3.95-3.72-8.22-5.56-12.33c-3.43-7.84-6.24-15.89-8.56-24.06c-2-8-3.37-16.15-4.32-24.31
				C1409.78-9.41,1409.86-15.02,1409.86-20.61z"/>
			<path class="st2" d="M1762.62,1128.97c0.95-9.49,0.64-19.19,0.83-28.79c0.13-13.42,0.48-26.82,0.7-40.23
				c0.46-22.18,0.79-44.39,1.9-66.5c0.95-20.51,1.8-41.04,3.31-61.44c1.3-17.65,1.81-35.47,2.76-53.19
				c1.27-24.99,2.27-50.01,2.74-75.09c0.3-15.39,0.7-30.77,1.41-46.11c0.23-11.53,0.53-23.05,0.74-34.58
				c0.55-44.69,0.16-89.41,0.4-134.11c-0.01-11.32,0.12-22.66-0.23-33.97c-0.25-12.21-0.97-24.37-1.38-36.57
				c-0.28-12.84-0.09-25.69-0.48-38.52c-0.32-11.4-0.15-22.82-0.39-34.22c-0.68-24.14-0.12-48.32-0.31-72.48
				c-0.58-30.92-1.6-61.86-0.88-92.82c2.15,28.24,4.6,56.46,5.73,84.93c0.46,19.34,0.24,38.73,0.38,58.08
				c0.23,13.86,0.81,27.68,0.87,41.55c0.16,8.39,0.4,16.77,0.68,25.14c0.08,9.28,0.23,18.56,0.45,27.83
				c0.59,13.94,1.52,27.82,1.84,41.8c0.46,30.12,0.26,60.28,0.37,90.42c-0.05,23.69,0.25,47.39-0.08,71.08
				c-0.19,12.15-0.51,24.29-0.74,36.43c-0.41,9.45-0.76,18.91-0.99,28.39c-0.38,16.06-0.7,32.14-1.11,48.19
				c-0.89,22.91-2.05,45.79-3.09,68.68c-0.6,15.56-1.75,31-2.79,46.47c-0.86,15.31-1.51,30.66-2.23,46
				c-1.34,23.89-0.95,48.01-2.62,71.83c-0.87,11.48-1.97,22.89-3.29,34.21c-1.2,9.84-2.2,19.9-4.63,29
				C1762.53,1129.92,1762.58,1129.44,1762.62,1128.97z"/>
		</g>
		<g>
			<path class="st2" d="M1539.75-20.61c0.31-8.83,1.09-17.63,1.98-26.4c0.12-1.13,0.24-2.25,0.36-3.38
				c1.42,12.49,2.09,25.07,3.24,37.59c0.91,11.5,1.57,20.61,4.13,33.12c1.85,8.73,4.3,17.26,7.06,25.62
				c1.55,4.71,1.32,4.75,3.14,8.76c4.06,8.72,9.53,16.34,13.54,25.1c3.97,7.84,7.24,16.25,11.87,23.57
				c0.39,0.59,1.15,1.74,1.37,2.06c1.39,2.02,2.83,4,4.35,5.86c2.57,3.03,5.26,5.92,7.78,9.03c3.3,3.74,5.83,8.29,8.78,12.41
				c3.07,4.5,6.55,8.53,10.26,12.23c3.04,3.25,6.04,6.56,9.01,9.91c3.98,5.19,8.19,10.1,12.66,14.67c2.85,2.81,5.76,5.52,8.57,8.4
				c4.11,4.46,8.37,8.69,12.73,12.77c2.87,2.5,5.74,5,8.61,7.5c2.78,2.66,5.53,5.38,8.3,8.07c2.71,2.48,5.45,4.92,8.37,7.03
				c3.71,2.58,7.53,4.9,11.09,7.77c4.37,3.25,8.66,6.68,12.95,10.08c6.52,4.43,13.13,8.65,19.73,12.89
				c6.2,4.18,12.63,7.81,18.77,12.12c3.97,3.07,7.86,6.31,12.05,8.94c3.93,2.57,8.09,4.59,12.15,6.81c5.31,2.96,8,4.11,13.67,6.49
				c3.79,1.37,7.62,2.57,11.35,4.13c6.42,2.59,12.81,5.3,19.3,7.62c6.7,2.71,13.28,5.87,20.12,8.02c4.01,1.37,8.05,2.58,12.08,3.85
				c6.6,2.21,12.61,3.9,18.3,4.33c6.91,0.62,13.85,0.31,20.77,0.57c11.14,0.42,22.27,1.08,33.41,1.54
				c-11.57,1.78-23.23,2.74-34.89,3.01c-7.39,0.09-14.82,0.4-22.19-0.54c-6.11-0.68-12.04-2.6-17.96-4.46
				c-7.16-2.18-14.35-4.22-21.31-7.26c-6.06-2.57-12.18-4.88-18.32-7.14c-7.17-2.95-14.37-5.79-21.68-8.16
				c-2.64-1.07-5.27-2.21-7.91-3.31c-2.81-1.44-5.6-2.93-8.41-4.38c-4.31-2.26-8.67-4.39-12.77-7.18c-4.15-2.6-7.89-6.04-11.99-8.73
				c-11-7.11-22.19-13.82-33.13-21.08c-5.63-3.53-10.74-8.14-16.2-12.03c-4.35-3.51-9.12-6.11-13.55-9.45
				c-4.48-3.28-13.04-11.77-14.95-13.66c-7.05-6.02-14.06-12.16-20.51-19.13c-5.1-5.45-10.69-10.18-15.63-15.85
				c-3.51-3.58-6.36-7.99-9.83-11.63c-4.87-5.65-10.36-10.51-14.92-16.55c-2.77-3.59-5.22-7.51-7.8-11.3
				c-2.21-3.04-4.65-5.82-7.06-8.62c-5.25-5.58-9.86-12.01-13.68-19.11c-3.69-7.14-6.89-14.63-10.53-21.81
				c-3.96-7.93-9.02-15-12.55-23.25c-1.68-3.95-2.77-8.22-4.15-12.33c-2.56-7.84-4.65-15.89-6.39-24.06
				c-1.49-8-2.52-16.15-3.23-24.31C1539.69-9.41,1539.75-15.02,1539.75-20.61z"/>
			<path class="st2" d="M1802.98,1128.97c0.71-9.49,0.48-19.19,0.62-28.79c0.1-13.42,0.36-26.82,0.52-40.23
				c0.34-22.18,0.59-44.39,1.42-66.5c0.71-20.51,1.34-41.04,2.47-61.44c0.97-17.65,1.35-35.47,2.06-53.19
				c0.95-24.99,1.69-50.01,2.05-75.09c0.22-15.39,0.52-30.77,1.05-46.11c0.17-11.53,0.39-23.05,0.55-34.58
				c0.41-44.69,0.12-89.41,0.3-134.11c-0.01-11.32,0.09-22.66-0.17-33.97c-0.18-12.21-0.72-24.37-1.03-36.57
				c-0.21-12.84-0.07-25.69-0.36-38.52c-0.24-11.4-0.11-22.82-0.29-34.22c-0.5-24.14-0.09-48.32-0.23-72.48
				c-0.43-30.92-1.2-61.86-0.66-92.82c1.6,28.24,3.43,56.46,4.27,84.93c0.35,19.34,0.18,38.73,0.29,58.08
				c0.17,13.86,0.6,27.68,0.65,41.55c0.12,8.39,0.3,16.77,0.51,25.14c0.06,9.28,0.17,18.56,0.34,27.83
				c0.44,13.94,1.13,27.82,1.37,41.8c0.34,30.12,0.19,60.28,0.28,90.42c-0.04,23.69,0.19,47.39-0.06,71.08
				c-0.14,12.15-0.38,24.29-0.55,36.43c-0.31,9.45-0.56,18.91-0.74,28.39c-0.28,16.06-0.52,32.14-0.83,48.19
				c-0.66,22.91-1.53,45.79-2.31,68.68c-0.45,15.56-1.3,31-2.08,46.47c-0.64,15.31-1.13,30.66-1.66,46
				c-1,23.89-0.71,48.01-1.96,71.83c-0.65,11.48-1.47,22.89-2.46,34.21c-0.89,9.84-1.64,19.9-3.45,29
				C1802.91,1129.92,1802.94,1129.44,1802.98,1128.97z"/>
		</g>
		<g>
			<path class="st2" d="M1682.9-20.61c0.2-8.83,0.68-17.63,1.24-26.4c0.07-1.13,0.15-2.25,0.22-3.38
				c0.89,12.49,1.3,25.07,2.03,37.59c0.57,11.5,0.98,20.61,2.58,33.12c1.16,8.73,2.69,17.26,4.41,25.62
				c0.97,4.71,0.83,4.75,1.96,8.76c2.54,8.72,5.95,16.34,8.46,25.1c2.48,7.84,4.52,16.25,7.42,23.57c0.24,0.59,0.72,1.74,0.85,2.06
				c0.87,2.02,1.77,4,2.72,5.86c1.61,3.03,3.29,5.92,4.86,9.03c2.06,3.74,3.65,8.29,5.49,12.41c1.92,4.5,4.09,8.53,6.41,12.23
				c1.9,3.25,3.78,6.56,5.63,9.91c2.49,5.19,5.12,10.1,7.92,14.67c1.78,2.81,3.6,5.52,5.36,8.4c2.57,4.46,5.23,8.69,7.96,12.77
				c1.8,2.5,3.59,5,5.39,7.5c1.74,2.66,3.46,5.38,5.19,8.07c1.7,2.48,3.41,4.92,5.23,7.03c2.32,2.58,4.71,4.9,6.93,7.77
				c2.73,3.25,5.41,6.68,8.1,10.08c4.07,4.43,8.21,8.65,12.33,12.89c3.87,4.18,7.89,7.81,11.73,12.12c2.48,3.07,4.92,6.31,7.53,8.94
				c2.46,2.57,5.05,4.59,7.6,6.81c3.32,2.96,5,4.11,8.54,6.49c2.37,1.37,4.76,2.57,7.1,4.13c4.01,2.59,8.01,5.3,12.07,7.62
				c4.19,2.71,8.3,5.87,12.58,8.02c2.51,1.37,5.03,2.58,7.55,3.85c4.13,2.21,7.88,3.9,11.44,4.33c4.32,0.62,8.66,0.31,12.99,0.57
				c6.96,0.42,13.92,1.08,20.89,1.54c-7.24,1.78-14.52,2.74-21.81,3.01c-4.62,0.09-9.27,0.4-13.87-0.54
				c-3.82-0.68-7.53-2.6-11.23-4.46c-4.47-2.18-8.97-4.22-13.32-7.26c-3.79-2.57-7.61-4.88-11.45-7.14
				c-4.48-2.95-8.98-5.79-13.55-8.16c-1.65-1.07-3.29-2.21-4.94-3.31c-1.75-1.44-3.5-2.93-5.25-4.38c-2.69-2.26-5.42-4.39-7.98-7.18
				c-2.59-2.6-4.93-6.04-7.49-8.73c-6.88-7.11-13.87-13.82-20.71-21.08c-3.52-3.53-6.71-8.14-10.13-12.03
				c-2.72-3.51-5.7-6.11-8.47-9.45c-2.8-3.28-8.15-11.77-9.35-13.66c-4.41-6.02-8.79-12.16-12.82-19.13
				c-3.19-5.45-6.68-10.18-9.77-15.85c-2.19-3.58-3.98-7.99-6.14-11.63c-3.05-5.65-6.47-10.51-9.32-16.55
				c-1.73-3.59-3.26-7.51-4.87-11.3c-1.38-3.04-2.91-5.82-4.42-8.62c-3.28-5.58-6.16-12.01-8.55-19.11
				c-2.31-7.14-4.31-14.63-6.58-21.81c-2.48-7.93-5.64-15-7.85-23.25c-1.05-3.95-1.73-8.22-2.59-12.33
				c-1.6-7.84-2.91-15.89-3.99-24.06c-0.93-8-1.57-16.15-2.02-24.31C1682.87-9.41,1682.9-15.02,1682.9-20.61z"/>
			<path class="st2" d="M1847.45,1128.97c0.44-9.49,0.3-19.19,0.39-28.79c0.06-13.42,0.23-26.82,0.33-40.23
				c0.21-22.18,0.37-44.39,0.89-66.5c0.44-20.51,0.84-41.04,1.54-61.44c0.6-17.65,0.85-35.47,1.29-53.19
				c0.59-24.99,1.06-50.01,1.28-75.09c0.14-15.39,0.33-30.77,0.66-46.11c0.11-11.53,0.25-23.05,0.34-34.58
				c0.25-44.69,0.07-89.41,0.19-134.11c0-11.32,0.06-22.66-0.11-33.97c-0.12-12.21-0.45-24.37-0.64-36.57
				c-0.13-12.84-0.04-25.69-0.22-38.52c-0.15-11.4-0.07-22.82-0.18-34.22c-0.32-24.14-0.05-48.32-0.15-72.48
				c-0.27-30.92-0.75-61.86-0.41-92.82c1,28.24,2.15,56.46,2.67,84.93c0.22,19.34,0.11,38.73,0.18,58.08
				c0.11,13.86,0.38,27.68,0.4,41.55c0.07,8.39,0.19,16.77,0.32,25.14c0.04,9.28,0.11,18.56,0.21,27.83
				c0.27,13.94,0.71,27.82,0.86,41.8c0.21,30.12,0.12,60.28,0.17,90.42c-0.02,23.69,0.12,47.39-0.04,71.08
				c-0.09,12.15-0.24,24.29-0.34,36.43c-0.19,9.45-0.35,18.91-0.46,28.39c-0.17,16.06-0.33,32.14-0.52,48.19
				c-0.41,22.91-0.96,45.79-1.44,68.68c-0.28,15.56-0.82,31-1.3,46.47c-0.4,15.31-0.71,30.66-1.04,46
				c-0.62,23.89-0.44,48.01-1.22,71.83c-0.41,11.48-0.92,22.89-1.54,34.21c-0.56,9.84-1.03,19.9-2.16,29
				C1847.41,1129.92,1847.43,1129.44,1847.45,1128.97z"/>
		</g>
		<g>
			<path class="st2" d="M1760.43-20.61c0.13-8.83,0.46-17.63,0.83-26.4c0.05-1.13,0.1-2.25,0.15-3.38
				c0.6,12.49,0.88,25.07,1.37,37.59c0.39,11.5,0.66,20.61,1.74,33.12c0.78,8.73,1.82,17.26,2.98,25.62
				c0.65,4.71,0.56,4.75,1.32,8.76c1.71,8.72,4.02,16.34,5.71,25.1c1.68,7.84,3.06,16.25,5.01,23.57c0.16,0.59,0.48,1.74,0.58,2.06
				c0.59,2.02,1.19,4,1.84,5.86c1.09,3.03,2.22,5.92,3.28,9.03c1.39,3.74,2.46,8.29,3.71,12.41c1.29,4.5,2.76,8.53,4.33,12.23
				c1.28,3.25,2.55,6.56,3.8,9.91c1.68,5.19,3.46,10.1,5.34,14.67c1.2,2.81,2.43,5.52,3.62,8.4c1.73,4.46,3.53,8.69,5.38,12.77
				c1.21,2.5,2.42,5,3.64,7.5c1.17,2.66,2.33,5.38,3.5,8.07c1.14,2.48,2.3,4.92,3.53,7.03c1.56,2.58,3.18,4.9,4.68,7.77
				c1.85,3.25,3.65,6.68,5.47,10.08c2.75,4.43,5.54,8.65,8.33,12.89c2.62,4.18,5.33,7.81,7.92,12.12c1.68,3.07,3.32,6.31,5.09,8.94
				c1.66,2.57,3.41,4.59,5.13,6.81c2.24,2.96,3.38,4.11,5.77,6.49c1.6,1.37,3.21,2.57,4.79,4.13c2.71,2.59,5.41,5.3,8.15,7.62
				c2.83,2.71,5.61,5.87,8.49,8.02c1.69,1.37,3.4,2.58,5.1,3.85c2.79,2.21,5.32,3.9,7.73,4.33c2.92,0.62,5.85,0.31,8.77,0.57
				c4.7,0.42,9.4,1.08,14.1,1.54c-4.89,1.78-9.8,2.74-14.73,3.01c-3.12,0.09-6.26,0.4-9.37-0.54c-2.58-0.68-5.08-2.6-7.58-4.46
				c-3.02-2.18-6.06-4.22-8.99-7.26c-2.56-2.57-5.14-4.88-7.73-7.14c-3.03-2.95-6.06-5.79-9.15-8.16c-1.12-1.07-2.22-2.21-3.34-3.31
				c-1.18-1.44-2.36-2.93-3.55-4.38c-1.82-2.26-3.66-4.39-5.39-7.18c-1.75-2.6-3.33-6.04-5.06-8.73
				c-4.65-7.11-9.36-13.82-13.98-21.08c-2.38-3.53-4.53-8.14-6.84-12.03c-1.84-3.51-3.85-6.11-5.72-9.45
				c-1.89-3.28-5.5-11.77-6.31-13.66c-2.98-6.02-5.93-12.16-8.66-19.13c-2.15-5.45-4.51-10.18-6.6-15.85
				c-1.48-3.58-2.69-7.99-4.15-11.63c-2.06-5.65-4.37-10.51-6.3-16.55c-1.17-3.59-2.2-7.51-3.29-11.3
				c-0.93-3.04-1.96-5.82-2.98-8.62c-2.21-5.58-4.16-12.01-5.77-19.11c-1.56-7.14-2.91-14.63-4.44-21.81
				c-1.67-7.93-3.81-15-5.3-23.25c-0.71-3.95-1.17-8.22-1.75-12.33c-1.08-7.84-1.96-15.89-2.7-24.06c-0.63-8-1.06-16.15-1.36-24.31
				C1760.41-9.41,1760.44-15.02,1760.43-20.61z"/>
			<path class="st2" d="M1871.54,1128.97c0.3-9.49,0.2-19.19,0.26-28.79c0.04-13.42,0.15-26.82,0.22-40.23
				c0.14-22.18,0.25-44.39,0.6-66.5c0.3-20.51,0.57-41.04,1.04-61.44c0.41-17.65,0.57-35.47,0.87-53.19
				c0.4-24.99,0.71-50.01,0.86-75.09c0.09-15.39,0.22-30.77,0.44-46.11c0.07-11.53,0.17-23.05,0.23-34.58
				c0.17-44.69,0.05-89.41,0.13-134.11c0-11.32,0.04-22.66-0.07-33.97c-0.08-12.21-0.31-24.37-0.43-36.57
				c-0.09-12.84-0.03-25.69-0.15-38.52c-0.1-11.4-0.05-22.82-0.12-34.22c-0.21-24.14-0.04-48.32-0.1-72.48
				c-0.18-30.92-0.5-61.86-0.28-92.82c0.68,28.24,1.45,56.46,1.8,84.93c0.15,19.34,0.07,38.73,0.12,58.08
				c0.07,13.86,0.25,27.68,0.27,41.55c0.05,8.39,0.13,16.77,0.22,25.14c0.02,9.28,0.07,18.56,0.14,27.83
				c0.18,13.94,0.48,27.82,0.58,41.8c0.14,30.12,0.08,60.28,0.12,90.42c-0.02,23.69,0.08,47.39-0.03,71.08
				c-0.06,12.15-0.16,24.29-0.23,36.43c-0.13,9.45-0.24,18.91-0.31,28.39c-0.12,16.06-0.22,32.14-0.35,48.19
				c-0.28,22.91-0.65,45.79-0.97,68.68c-0.19,15.56-0.55,31-0.88,46.47c-0.27,15.31-0.48,30.66-0.7,46
				c-0.42,23.89-0.3,48.01-0.83,71.83c-0.27,11.48-0.62,22.89-1.04,34.21c-0.38,9.84-0.69,19.9-1.46,29
				C1871.51,1129.92,1871.53,1129.44,1871.54,1128.97z"/>
		</g>
		<g>
			<path class="st2" d="M1827.76-20.61c0.08-8.83,0.27-17.63,0.49-26.4c0.03-1.13,0.06-2.25,0.09-3.38
				c0.35,12.49,0.51,25.07,0.8,37.59c0.22,11.5,0.39,20.61,1.01,33.12c0.46,8.73,1.06,17.26,1.73,25.62
				c0.38,4.71,0.32,4.75,0.77,8.76c1,8.72,2.34,16.34,3.33,25.1c0.98,7.84,1.78,16.25,2.92,23.57c0.1,0.59,0.28,1.74,0.34,2.06
				c0.34,2.02,0.69,4,1.07,5.86c0.63,3.03,1.29,5.92,1.91,9.03c0.81,3.74,1.43,8.29,2.16,12.41c0.75,4.5,1.61,8.53,2.52,12.23
				c0.75,3.25,1.48,6.56,2.21,9.91c0.98,5.19,2.01,10.1,3.11,14.67c0.7,2.81,1.42,5.52,2.11,8.4c1.01,4.46,2.06,8.69,3.13,12.77
				c0.71,2.5,1.41,5,2.12,7.5c0.68,2.66,1.36,5.38,2.04,8.07c0.67,2.48,1.34,4.92,2.06,7.03c0.91,2.58,1.85,4.9,2.73,7.77
				c1.07,3.25,2.13,6.68,3.18,10.08c1.6,4.43,3.23,8.65,4.85,12.89c1.52,4.18,3.1,7.81,4.61,12.12c0.98,3.07,1.93,6.31,2.96,8.94
				c0.97,2.57,1.99,4.59,2.99,6.81c1.31,2.96,1.97,4.11,3.36,6.49c0.93,1.37,1.87,2.57,2.79,4.13c1.58,2.59,3.15,5.3,4.74,7.62
				c1.65,2.71,3.26,5.87,4.95,8.02c0.98,1.37,1.98,2.58,2.97,3.85c1.62,2.21,3.1,3.9,4.5,4.33c1.7,0.62,3.4,0.31,5.11,0.57
				c2.74,0.42,5.47,1.08,8.21,1.54c-2.84,1.78-5.71,2.74-8.57,3.01c-1.82,0.09-3.64,0.4-5.45-0.54c-1.5-0.68-2.96-2.6-4.41-4.46
				c-1.76-2.18-3.53-4.22-5.24-7.26c-1.49-2.57-2.99-4.88-4.5-7.14c-1.76-2.95-3.53-5.79-5.33-8.16c-0.65-1.07-1.3-2.21-1.94-3.31
				c-0.69-1.44-1.38-2.93-2.07-4.38c-1.06-2.26-2.13-4.39-3.14-7.18c-1.02-2.6-1.94-6.04-2.95-8.73c-2.7-7.11-5.45-13.82-8.14-21.08
				c-1.38-3.53-2.64-8.14-3.98-12.03c-1.07-3.51-2.24-6.11-3.33-9.45c-1.1-3.28-3.2-11.77-3.67-13.66
				c-1.73-6.02-3.45-12.16-5.04-19.13c-1.25-5.45-2.63-10.18-3.84-15.85c-0.86-3.58-1.56-7.99-2.42-11.63
				c-1.2-5.65-2.55-10.51-3.67-16.55c-0.68-3.59-1.28-7.51-1.92-11.3c-0.54-3.04-1.14-5.82-1.74-8.62
				c-1.29-5.58-2.42-12.01-3.36-19.11c-0.91-7.14-1.69-14.63-2.59-21.81c-0.97-7.93-2.22-15-3.08-23.25
				c-0.41-3.95-0.68-8.22-1.02-12.33c-0.63-7.84-1.14-15.89-1.57-24.06c-0.37-8-0.62-16.15-0.79-24.31
				C1827.75-9.41,1827.76-15.02,1827.76-20.61z"/>
			<path class="st2" d="M1892.46,1128.97c0.17-9.49,0.12-19.19,0.15-28.79c0.02-13.42,0.09-26.82,0.13-40.23
				c0.08-22.18,0.15-44.39,0.35-66.5c0.17-20.51,0.33-41.04,0.61-61.44c0.24-17.65,0.33-35.47,0.51-53.19
				c0.23-24.99,0.42-50.01,0.5-75.09c0.05-15.39,0.13-30.77,0.26-46.11c0.04-11.53,0.1-23.05,0.14-34.58
				c0.1-44.69,0.03-89.41,0.07-134.11c0-11.32,0.02-22.66-0.04-33.97c-0.05-12.21-0.18-24.37-0.25-36.57
				c-0.05-12.84-0.02-25.69-0.09-38.52c-0.06-11.4-0.03-22.82-0.07-34.22c-0.12-24.14-0.02-48.32-0.06-72.48
				c-0.11-30.92-0.29-61.86-0.16-92.82c0.39,28.24,0.84,56.46,1.05,84.93c0.09,19.34,0.04,38.73,0.07,58.08
				c0.04,13.86,0.15,27.68,0.16,41.55c0.03,8.39,0.07,16.77,0.13,25.14c0.01,9.28,0.04,18.56,0.08,27.83
				c0.11,13.94,0.28,27.82,0.34,41.8c0.08,30.12,0.05,60.28,0.07,90.42c-0.01,23.69,0.05,47.39-0.02,71.08
				c-0.03,12.15-0.09,24.29-0.14,36.43c-0.08,9.45-0.14,18.91-0.18,28.39c-0.07,16.06-0.13,32.14-0.2,48.19
				c-0.16,22.91-0.38,45.79-0.57,68.68c-0.11,15.56-0.32,31-0.51,46.47c-0.16,15.31-0.28,30.66-0.41,46
				c-0.24,23.89-0.17,48.01-0.48,71.83c-0.16,11.48-0.36,22.89-0.6,34.21c-0.22,9.84-0.4,19.9-0.85,29
				C1892.44,1129.92,1892.45,1129.44,1892.46,1128.97z"/>
		</g>
		<g>
			<path class="st2" d="M1874.69-20.61c0.04-8.83,0.13-17.63,0.24-26.4c0.01-1.13,0.03-2.25,0.04-3.38
				c0.17,12.49,0.26,25.07,0.4,37.59c0.11,11.5,0.19,20.61,0.51,33.12c0.23,8.73,0.53,17.26,0.87,25.62
				c0.19,4.71,0.16,4.75,0.39,8.76c0.5,8.72,1.17,16.34,1.66,25.1c0.49,7.84,0.89,16.25,1.46,23.57c0.05,0.59,0.14,1.74,0.17,2.06
				c0.17,2.02,0.35,4,0.54,5.86c0.32,3.03,0.65,5.92,0.96,9.03c0.41,3.74,0.72,8.29,1.08,12.41c0.38,4.5,0.8,8.53,1.26,12.23
				c0.37,3.25,0.74,6.56,1.11,9.91c0.49,5.19,1.01,10.1,1.56,14.67c0.35,2.81,0.71,5.52,1.05,8.4c0.51,4.46,1.03,8.69,1.56,12.77
				c0.35,2.5,0.71,5,1.06,7.5c0.34,2.66,0.68,5.38,1.02,8.07c0.33,2.48,0.67,4.92,1.03,7.03c0.46,2.58,0.93,4.9,1.36,7.77
				c0.54,3.25,1.06,6.68,1.59,10.08c0.8,4.43,1.61,8.65,2.42,12.89c0.76,4.18,1.55,7.81,2.31,12.12c0.49,3.07,0.97,6.31,1.48,8.94
				c0.48,2.57,0.99,4.59,1.49,6.81c0.65,2.96,0.98,4.11,1.68,6.49c0.47,1.37,0.94,2.57,1.4,4.13c0.79,2.59,1.57,5.3,2.37,7.62
				c0.82,2.71,1.63,5.87,2.47,8.02c0.49,1.37,0.99,2.58,1.48,3.85c0.81,2.21,1.55,3.9,2.25,4.33c0.85,0.62,1.7,0.31,2.55,0.57
				c1.37,0.42,2.74,1.08,4.11,1.54c-1.42,1.78-2.85,2.74-4.29,3.01c-0.91,0.09-1.82,0.4-2.73-0.54c-0.75-0.68-1.48-2.6-2.21-4.46
				c-0.88-2.18-1.76-4.22-2.62-7.26c-0.74-2.57-1.5-4.88-2.25-7.14c-0.88-2.95-1.77-5.79-2.66-8.16c-0.32-1.07-0.65-2.21-0.97-3.31
				c-0.34-1.44-0.69-2.93-1.03-4.38c-0.53-2.26-1.07-4.39-1.57-7.18c-0.51-2.6-0.97-6.04-1.47-8.73
				c-1.35-7.11-2.73-13.82-4.07-21.08c-0.69-3.53-1.32-8.14-1.99-12.03c-0.53-3.51-1.12-6.11-1.66-9.45
				c-0.55-3.28-1.6-11.77-1.84-13.66c-0.87-6.02-1.73-12.16-2.52-19.13c-0.63-5.45-1.31-10.18-1.92-15.85
				c-0.43-3.58-0.78-7.99-1.21-11.63c-0.6-5.65-1.27-10.51-1.83-16.55c-0.34-3.59-0.64-7.51-0.96-11.3
				c-0.27-3.04-0.57-5.82-0.87-8.62c-0.64-5.58-1.21-12.01-1.68-19.11c-0.45-7.14-0.85-14.63-1.29-21.81
				c-0.49-7.93-1.11-15-1.54-23.25c-0.21-3.95-0.34-8.22-0.51-12.33c-0.31-7.84-0.57-15.89-0.78-24.06c-0.18-8-0.31-16.15-0.4-24.31
				C1874.68-9.41,1874.69-15.02,1874.69-20.61z"/>
			<path class="st2" d="M1907.04,1128.97c0.09-9.49,0.06-19.19,0.08-28.79c0.01-13.42,0.04-26.82,0.06-40.23
				c0.04-22.18,0.07-44.39,0.17-66.5c0.09-20.51,0.16-41.04,0.3-61.44c0.12-17.65,0.17-35.47,0.25-53.19
				c0.12-24.99,0.21-50.01,0.25-75.09c0.03-15.39,0.06-30.77,0.13-46.11c0.02-11.53,0.05-23.05,0.07-34.58
				c0.05-44.69,0.01-89.41,0.04-134.11c0-11.32,0.01-22.66-0.02-33.97c-0.02-12.21-0.09-24.37-0.13-36.57
				c-0.03-12.84-0.01-25.69-0.04-38.52c-0.03-11.4-0.01-22.82-0.04-34.22c-0.06-24.14-0.01-48.32-0.03-72.48
				c-0.05-30.92-0.15-61.86-0.08-92.82c0.2,28.24,0.42,56.46,0.53,84.93c0.04,19.34,0.02,38.73,0.04,58.08
				c0.02,13.86,0.07,27.68,0.08,41.55c0.01,8.39,0.04,16.77,0.06,25.14c0.01,9.28,0.02,18.56,0.04,27.83
				c0.05,13.94,0.14,27.82,0.17,41.8c0.04,30.12,0.02,60.28,0.03,90.42c0,23.69,0.02,47.39-0.01,71.08
				c-0.02,12.15-0.05,24.29-0.07,36.43c-0.04,9.45-0.07,18.91-0.09,28.39c-0.03,16.06-0.06,32.14-0.1,48.19
				c-0.08,22.91-0.19,45.79-0.28,68.68c-0.06,15.56-0.16,31-0.26,46.47c-0.08,15.31-0.14,30.66-0.2,46
				c-0.12,23.89-0.09,48.01-0.24,71.83c-0.08,11.48-0.18,22.89-0.3,34.21c-0.11,9.84-0.2,19.9-0.42,29
				C1907.03,1129.92,1907.03,1129.44,1907.04,1128.97z"/>
		</g>
	</g>
</g>
<g id="Layer_5">
	<ellipse class="st3" cx="960" cy="622.94" rx="123" ry="127"/>
	<ellipse class="st3" cx="526.38" cy="622.94" rx="123" ry="127"/>
	<ellipse class="st3" cx="1393.62" cy="622.94" rx="123" ry="127"/>
	<text transform="matrix(1 0 0 1 417.0395 814.1294)" class="st4 st5 st6">Neha Kalra</text>
	<text transform="matrix(1 0 0 1 1255.1394 814.129)" class="st4 st5 st6">Jared Reuben</text>
	<text transform="matrix(1 0 0 1 858.8074 814.1286)"><tspan x="0" y="0" class="st4 st5 st6">Mohamed</tspan><tspan x="0" y="57.6" class="st4 st5 st6">Mohamed</tspan></text>
</g>
<g id="Layer_3" class="st7">
	<circle class="st8" cx="529.45" cy="638.45" r="132.45"/>
	<circle class="st8" cx="960" cy="638.45" r="132.45"/>
	<circle class="st8" cx="1390.55" cy="638.45" r="132.45"/>
</g>
<g id="Layer_4">
	<g>
		<g>
			<g>
				<path class="st9" d="M554.98,509.23c-4.08-4.55-8.39-8.76-12.2-13.56c-3.63-4.58-8.01-8.46-11.48-13.17
					c-7.32-9.93-14.09-20-20.72-30.4c-3.19-5-5.65-10.11-8.1-15.49c-2.46-5.42-5.81-10.43-8.08-15.93
					c-2.17-5.28-3.08-10.98-4.74-16.42c-0.97-3.15-2.08-6.26-2.9-9.45c-0.63-2.44-0.73-5.19-1.93-7.42c0.02,0.03-9.62,5.32-9.53,5.5
					c1.08,2.01,1.18,4.36,1.71,6.56c0.77,3.21,1.87,6.31,2.85,9.46c1.79,5.72,2.74,11.72,5.01,17.28c2.14,5.24,5.33,9.99,7.71,15.13
					c2.61,5.64,5.11,11.04,8.46,16.29c6.63,10.4,13.4,20.47,20.72,30.4c3.3,4.48,7.45,8.16,10.94,12.48
					c4.04,5,8.45,9.48,12.74,14.25C546.01,515.35,554.53,508.73,554.98,509.23L554.98,509.23z"/>
			</g>
		</g>
		<g>
			<g>
				<path class="st9" d="M519.27,459.99c7.3-5.61,12.25-14.62,10.84-24.08c-0.73-4.9-3.23-9.35-3.92-14.29
					c-0.75-5.41-0.91-10.49-0.51-15.92c-0.04,0.48-4.25,2.39-4.79,2.7c-0.62,0.36-4.68,2.08-4.74,2.8
					c-0.38,5.16-0.26,9.89,0.41,15.04c0.68,5.26,3.24,9.97,4.02,15.17c1.41,9.46-3.54,18.47-10.84,24.08
					C512.62,463.28,516.38,462.21,519.27,459.99L519.27,459.99z"/>
			</g>
		</g>
		<g>
			<g>
				<path class="st9" d="M511.79,408.76c-0.71,2.55-1.43,7.87-3.93,9.37c2.96-1.7,5.93-3.4,8.89-5.1
					c-5.55,2.05-10.34,6.09-15.11,9.38c-7.46,5.13-7.04,14.76-7.46,22.87c0.02-0.45,4.27-2.4,4.79-2.7c0.6-0.35,4.7-2.1,4.74-2.8
					c0.29-5.58,0.08-11.58,2.36-16.81c2.08-4.76,6.54-6.15,9.88-9.65c-3.18,1.83-6.35,3.67-9.53,5.5c3.3-1.22,6.85-3.36,9.7-5.4
					c3.37-2.41,4.11-6.29,5.2-10.17c-0.2,0.71-4.08,2.29-4.79,2.7C515.7,406.44,512.06,407.8,511.79,408.76L511.79,408.76z"/>
			</g>
		</g>
		<g>
			<g>
				<path class="st9" d="M518.03,459.28c-4.23-2.99-9.2-3.57-14.16-4.61c-4.77-1-9.16-2.05-13.68,0.28
					c-3.21,1.65-6.57,3.5-9.55,5.55c-1.53,1.06-3.25,2.43-4.44,3.88c-1.85,1.59-0.28,0.73,4.72-2.58c-0.43,0.15-0.86,0.31-1.29,0.46
					c-1.29,0.15-2.34,0.45-3.68,0.34c-1.11-0.09-3.82,2.14-4.79,2.7c-0.98,0.56-3.61,2.89-4.74,2.8c4.67,0.39,8.99-2.86,12.84-5.1
					c4.05-2.35,7.09-5.2,10.83-7.95c-1.16,0.69-2.31,1.38-3.47,2.06c0.38-0.22,0.76-0.44,1.14-0.66c-2.02,1.15-4.04,2.29-6.06,3.44
					c4.62-1.92,9.47-0.35,14.15,0.6c4.49,0.91,8.82,1.59,12.65,4.3C509.81,465.71,516.83,458.44,518.03,459.28L518.03,459.28z"/>
			</g>
		</g>
		<g>
			<g>
				<path class="st9" d="M468.92,468.29c1.75,1.83,3.35,4,5.45,5.44c2.36,1.62,5.08,1.9,7.75,2.66c5.05,1.44,9.97,3.92,15.37,2.94
					c3.6-0.65,6.9-3.07,9.99-4.87c1.33-0.77,2.84-1.48,4.03-2.47c1.73-1.44,2.35-3.6,4.16-4.96c-3.18,1.83-6.35,3.67-9.53,5.5
					c1.88-0.78,3.72-1.21,5.75-1.08c1.14,0.08,3.8-2.13,4.79-2.7c1-0.58,3.58-2.87,4.74-2.8c-4.29-0.29-7.63,2.09-11.17,4.15
					c-1.34,0.77-2.88,1.48-4.1,2.43c-1.98,1.54-2.63,3.87-4.72,5.36c3.12-1.8,6.23-3.61,9.35-5.41c-5.84,3-11.64,0.87-17.43-1.03
					c-2.67-0.88-5.66-1.16-8.19-2.45c-2.73-1.4-4.64-4.03-6.72-6.21C477.8,462.11,469.47,468.86,468.92,468.29L468.92,468.29z"/>
			</g>
		</g>
		<path class="st10" d="M515.04,464.71c-2.33-0.76-4.76-1.17-7.21-1.23c-1.29-0.03-2.6,0.04-3.86,0.32
			c-3.16,0.69-5.91,2.6-8.91,3.81c-5.45,2.2-11.82,2-17.12-0.54"/>
		<path class="st10" d="M508.36,449.26c1.35-2.5,2.19-5.28,2.46-8.11c0.29-3.03-0.06-6.11,0.44-9.12c0.37-2.25,1.21-4.38,2.05-6.5
			c1.11-2.83,2.24-5.68,3.96-8.19"/>
		<path class="st10" d="M508.09,422c0.18,1.15,0.36,2.31,0.85,3.36c0.28,0.6,0.66,1.16,1.04,1.71c0.61,0.89,1.22,1.78,1.83,2.67"/>
		<path class="st10" d="M520.57,427.66c-0.82,0.21-1.66,0.44-2.32,0.97c-0.37,0.3-0.66,0.68-0.98,1.04c-0.69,0.75-1.53,1.38-2.5,1.7
			s-2.05,0.34-2.99-0.07"/>
		<path class="st10" d="M505.26,427.76c1.63,2.49,1.46,5.95,3.48,8.12c0.6,0.65,1.38,1.15,1.81,1.93"/>
		<path class="st10" d="M521.66,435.66c-1.03,0-1.94,0.67-2.63,1.44c-0.69,0.76-1.24,1.65-2.01,2.34c-1.03,0.92-2.37,1.41-3.7,1.77
			c-0.43,0.12-0.87,0.22-1.32,0.17s-0.89-0.3-1.06-0.71"/>
		<path class="st10" d="M504.03,433.77c0.73,1.3,0.86,2.85,1.15,4.31c0.62,3.13,2.07,6.1,4.16,8.52"/>
		<path class="st10" d="M519.68,448.36c-0.4-0.47-0.86-0.97-1.47-1.03c-0.48-0.04-0.93,0.21-1.37,0.41
			c-1.93,0.88-4.12,0.93-6.24,0.96c-0.4,0.01-0.91-0.06-1.02-0.45"/>
		<path class="st10" d="M506.66,460.11c1.39,0.77,2.04,2.66,1.42,4.12"/>
		<path class="st10" d="M503.08,472.46c1.57-1.54,1.84-3.93,2.02-6.11c0.04-0.45,0.07-0.95-0.19-1.32
			c-0.25-0.37-0.71-0.53-1.14-0.66"/>
		<path class="st10" d="M494.76,458.04c1.41,0.65,2.58,1.83,3.21,3.25c0.63,1.42,0.73,3.07,0.27,4.56"/>
		<path class="st10" d="M493.51,474.36c1.01-0.47,1.74-1.42,2.17-2.45c0.43-1.03,0.61-2.14,0.78-3.24c0.07-0.47,0.07-1.09-0.38-1.26
			"/>
		<path class="st10" d="M487.02,460.72c2.33,1.06,3.82,3.66,3.71,6.21c-0.02,0.43-0.09,0.88-0.35,1.22
			c-0.27,0.34-0.78,0.51-1.14,0.27"/>
		<path class="st10" d="M485.47,472.2c1.1-0.53,1.84-1.72,1.84-2.93"/>
		<path class="st2" d="M518.17,333.16c-1.47-5.53-4.45-10.82-8.86-14.53c-8.16-6.37-18.33-8.51-26.78-1.37
			c-3.9,3.32-6.21,7.97-8.64,12.38c-1.39,2.46-2.83,5.17-5.8,7.02c4.17-1,7.52-3.75,10.58-6.62c4.37-3.78,6.23-5.66,10.31-6.75
			c0.01,0,0.01,0,0.01,0c3.27-0.46,1.94-0.39,4.24-0.07c0.76,0.26,1.5,0.59,2.21,0.97c1.52,0.98,2.96,2.09,4.25,3.35
			c0.64,0.73,1.22,1.51,1.73,2.34c0.24,0.49,0.47,0.98,0.68,1.48c1.92,3.41,2.44,13.71,2.48,18.41c-0.12,4.78-0.51,9.6-1.69,14.25
			c-0.02,0.06-0.03,0.12-0.05,0.19c-3.5,10.34-7.51,15.93-14.13,20.29c-3.66,1.81-7.95,2.17-12.56,2.15
			c-1.88-0.05-3.76-0.09-5.63-0.31c2.64,1.42,5.42,2.6,8.28,3.54c12.48,4.29,22.48-1.65,30.63-10.93
			C519.95,366.49,522.31,348.62,518.17,333.16z"/>
		<g>
			<g>
				<path class="st2" d="M482.18,322.2c-1.71-3.87-5.32-7.49-9.1-9.25c-4.66-2.16-7.69-0.44-11.82,1.9
					c-3.16,1.79-6.48,3.48-9.43,5.6c-4.23,3.04-5.6,8-6.06,13c0.05-0.5,4.24-2.38,4.79-2.7c0.64-0.37,4.67-2.05,4.74-2.8
					c0.52-5.59,2.12-10.03,6.64-13.43c-1.16,0.69-2.31,1.38-3.47,2.06c-1.41,0.82,2.95,0.94,3.87,1.28c1.2,0.44,2.79,1.13,3.84,1.89
					c2.4,1.73,5.28,5.23,6.49,7.95C472.53,327.41,482.38,322.63,482.18,322.2L482.18,322.2z"/>
			</g>
		</g>
		<g>
			<path class="st2" d="M483.96,390.79c-10.91-1.07-20.04-4.58-26.58-9.73c-5.27-4.43-8.49-12.45-13.04-24.83
				c-5.07-13.22-4.4-23.27-0.9-25.46c0.72-0.26,2.26-0.78,6.45,1.61c-0.12-0.08-0.06-0.05,0.17,0.1c0.08,0.04,0.15,0.08,0.23,0.13
				c-0.07-0.04-0.13-0.07-0.18-0.1c0.06,0.04,0.12,0.08,0.19,0.13c4.12,2.88,7.78,6.35,11.68,9.52
				c-3.45-6.17-6.24-13.58-12.37-17.83c-7.69-5.29-15.61-0.83-19.26,6.86c-3.3,7.17-3.42,15.49-1.98,23.14
				c2.81,13.79,9.45,29.65,22.17,36.92c10.27,5.35,22.78,5.99,33.86,2.97c3-0.82,5.9-1.96,8.7-3.32
				C489.86,391.07,487.19,391.08,483.96,390.79z"/>
			<path class="st2" d="M449.89,332.38c0.05,0.03,0.12,0.07,0.22,0.13c-0.02-0.01-0.03-0.02-0.04-0.03
				C450,332.45,449.94,332.42,449.89,332.38z"/>
		</g>
	</g>
	<g>
		<g>
			<g>
				<path class="st9" d="M643.2,955.97c-5.78-0.61-11.53-0.77-17.28-1.75c-6.34-1.08-12.78-1.07-19.08-2.42
					c-12.06-2.59-23.85-5.4-35.73-8.73c-5.71-1.6-10.91-3.88-16.35-6.19c-5.21-2.22-10.77-3.6-15.86-6.06
					c-5.41-2.61-10.14-6.42-15.3-9.47c-2.58-1.53-5.21-2.96-7.71-4.62c-2.08-1.38-4.05-3.37-6.4-4.22c-0.69-0.25-4.11,2.31-4.79,2.7
					c-0.67,0.39-4.04,3.05-4.74,2.8c2.15,0.77,3.79,2.44,5.67,3.73c2.47,1.7,5.09,3.14,7.68,4.65c5.2,3.04,9.97,6.86,15.36,9.56
					c5.04,2.53,10.57,3.91,15.76,6.08c5.73,2.39,11.17,4.85,17.16,6.53c11.59,3.25,23.1,5.99,34.86,8.54
					c12.15,2.63,24.88,3.05,37.22,4.36c1.08,0.11,3.85-2.16,4.79-2.7C639.41,958.22,642.1,955.85,643.2,955.97L643.2,955.97z"/>
			</g>
		</g>
		<g>
			<g>
				<path class="st9" d="M583.69,943.34c1.77-9.82-1.23-20.8-9.99-26.47c-4.02-2.61-8.2-4.52-11.81-7.75
					c-3.68-3.29-6.8-6.48-9.83-10.38c-0.36-0.46-9.27,5.83-9.53,5.5c2.87,3.69,5.79,6.76,9.27,9.87c3.82,3.41,8.1,5.5,12.36,8.26
					c8.75,5.68,11.76,16.65,9.99,26.47c0.11-0.6,4.17-2.34,4.79-2.7C579.68,945.72,583.54,944.19,583.69,943.34L583.69,943.34z"/>
			</g>
		</g>
		<g>
			<g>
				<path class="st9" d="M537.67,905.36c1.64,3.29,3.63,6.59,3.16,10.31c-0.35,2.77-1.63,5.66-1.97,8.51
					c-0.95,7.94,5.64,14.47,10.21,20.09c0.42,0.51,9.21-5.89,9.53-5.5c-4.57-5.62-11.17-12.16-10.21-20.09
					c0.34-2.86,1.57-5.74,1.97-8.51c0.54-3.69-1.54-7.06-3.16-10.31C547.26,899.99,537.53,905.08,537.67,905.36L537.67,905.36z"/>
			</g>
		</g>
		<g>
			<g>
				<path class="st9" d="M582.29,943.66c-5.21,0.65-9.54,3.56-13.99,6.14c-1.12,0.65-2.24,1.3-3.36,1.96
					c-0.73,0.43-1.47,0.87-2.19,1.32c1.01-0.57,2.01-1.15,3.02-1.72c-2.5,1.42-4.99,2.85-7.47,4.32c-4.62,2.73-8.56,5.35-9.45,11.01
					c-0.75,4.82-0.74,9.89-5.09,13.13c2.91-2.17,6.6-3.32,9.53-5.5c6.25-4.65,2.98-12.5,6.81-18.13c0.58-0.85,1.58-1.44,2.12-2.26
					c1.55-2.32-2.63,1.34-1.15,0.25c1.43-1.06,3.19-1.83,4.72-2.72c1.5-0.87,2.97-1.79,4.48-2.64c2.48-1.39-4.22,1.3-1.5,1.22
					c1.18-0.04,2.8-0.72,4-0.87C576.15,948.73,578.97,944.07,582.29,943.66L582.29,943.66z"/>
			</g>
		</g>
		<g>
			<g>
				<path class="st9" d="M545.74,978.28c3.62,0.27,7.12,0.97,10.6-0.4c1.71-0.67,3.3-1.69,4.9-2.59c1.47-0.83,3.58-1.62,4.81-2.78
					c-1.15,0.73-2.3,1.47-3.44,2.2c0.84-0.31,1.66-0.66,2.47-1.05c1.98-0.89,3.9-1.89,5.8-2.94c4.19-2.32,9.37-4.63,12.54-8.35
					c2.48-2.92,2.58-4.97,2.35-8.51c-0.21-3.26,0.88-5.43,3.53-7.52c-2.84,2.24-6.67,3.25-9.53,5.5c-1.24,0.98-2.43,2.24-3.1,3.7
					c-1.02,2.21-0.12,3.69-0.09,6c0.05,4.09-3.24,7.36-6.37,9.52c2-1.18,4-2.35,6-3.53c-3.14,1.8-6.83,2.94-10.04,4.78
					c-1.04,0.59-2.06,1.21-3.1,1.79c-1.7,1-0.77,0.42,2.79-1.72c-0.49,0.17-0.97,0.34-1.46,0.5c-3.14,0.38-5.99,0.13-9.15-0.1
					c-1.13-0.08-3.81,2.13-4.79,2.7C549.49,976.05,546.89,978.36,545.74,978.28L545.74,978.28z"/>
			</g>
		</g>
		<path class="st10" d="M580.64,947.2c-2.23,1-4.32,2.32-6.17,3.92c-0.98,0.85-1.9,1.77-2.65,2.82c-1.89,2.63-2.65,5.89-4.06,8.8
			c-2.57,5.29-7.43,9.41-13.07,11.07"/>
		<path class="st10" d="M565.34,940.21c-0.68-2.76-1.91-5.39-3.61-7.67c-1.82-2.45-4.14-4.5-5.79-7.06
			c-1.23-1.92-2.04-4.07-2.84-6.2c-1.07-2.84-2.14-5.72-2.55-8.73"/>
		<path class="st10" d="M546.86,920.16c0.9,0.73,1.82,1.47,2.88,1.92c0.61,0.26,1.27,0.41,1.91,0.57c1.05,0.25,2.1,0.5,3.15,0.75"/>
		<path class="st10" d="M559.93,915.99c-0.46,0.7-0.94,1.44-1.07,2.27c-0.07,0.47-0.03,0.95-0.04,1.43
			c-0.01,1.02-0.22,2.05-0.71,2.94s-1.3,1.63-2.26,1.95"/>
		<path class="st10" d="M548.62,926.33c2.87,0.76,5.07,3.44,8.03,3.7c0.88,0.08,1.8-0.07,2.64,0.22"/>
		<path class="st10" d="M566.09,921.2c-0.76,0.69-0.99,1.8-0.99,2.83c0,1.03,0.19,2.06,0.08,3.08c-0.15,1.37-0.82,2.63-1.56,3.79
			c-0.24,0.37-0.5,0.75-0.86,1.01s-0.86,0.37-1.26,0.18"/>
		<path class="st10" d="M551.73,931.61c1.42,0.48,2.55,1.54,3.75,2.43c2.56,1.91,5.63,3.14,8.8,3.54"/>
		<path class="st10" d="M573.13,931.96c-0.61-0.08-1.29-0.15-1.78,0.22c-0.39,0.29-0.55,0.78-0.75,1.22
			c-0.84,1.95-2.44,3.45-3.99,4.89c-0.29,0.27-0.72,0.56-1.05,0.35"/>
		<path class="st10" d="M571.34,949.41c1.55-0.36,3.3,0.6,3.81,2.11"/>
		<path class="st10" d="M576.96,960.97c0.13-2.19-1.27-4.15-2.6-5.89c-0.28-0.36-0.59-0.75-1.03-0.86
			c-0.44-0.11-0.88,0.08-1.29,0.27"/>
		<path class="st10" d="M561.12,955.84c1.49-0.47,3.14-0.37,4.56,0.26s2.6,1.79,3.25,3.2"/>
		<path class="st10" d="M571.13,968.79c0.43-1.03,0.34-2.22-0.03-3.27c-0.37-1.05-0.98-2-1.6-2.93c-0.26-0.4-0.68-0.85-1.12-0.68"/>
		<path class="st10" d="M557.17,963.01c2.44-0.78,5.29,0.15,6.92,2.13c0.27,0.33,0.52,0.71,0.55,1.14c0.03,0.43-0.24,0.9-0.67,0.96"
			/>
		<path class="st10" d="M563.72,972.57c0.46-1.13,0.22-2.51-0.6-3.41"/>
		<path class="st2" d="M494.82,847.45c-4.8-3.12-10.56-5.04-16.31-4.84c-10.33,0.74-19.31,5.96-20.8,16.92
			c-0.67,5.08,0.73,10.08,1.88,14.98c0.62,2.76,1.36,5.74,0.4,9.1c2.43-3.53,3.07-7.83,3.41-12c0.71-5.74,0.83-8.37,3.13-11.92
			c0,0,0-0.01,0.01-0.01c2.12-2.53,1.18-1.59,3.1-2.89c0.74-0.32,1.51-0.57,2.29-0.76c1.79-0.29,3.6-0.43,5.4-0.36
			c0.96,0.12,1.92,0.3,2.85,0.57c0.5,0.2,1,0.41,1.49,0.64c3.71,1.24,10.99,8.54,14.17,12c3.12,3.63,6.05,7.47,8.3,11.71
			c0.03,0.06,0.06,0.11,0.09,0.17c4.33,10.02,5.11,16.86,3.11,24.53c-1.5,3.8-4.45,6.94-7.88,10.01c-1.43,1.22-2.85,2.45-4.39,3.54
			c2.91-0.72,5.77-1.7,8.51-2.92c12.14-5.18,15.58-16.29,15.41-28.64C518.47,871,508.25,856.15,494.82,847.45z"/>
		<g>
			<g>
				<path class="st2" d="M463.83,865.91c-8.7-3.89-16.28,0.32-23.66,4.78c-8.7,5.25-7.38,15.77-1.97,23.01
					c0.31,0.41,9.32-5.78,9.53-5.5c-4.55-6.08-7.33-16.95,0.43-22.06c-3.12,1.8-6.24,3.59-9.36,5.39c4.9-1.98,10.58-2.33,15.51-0.12
					c0.59,0.26,4.18-2.35,4.79-2.7C459.69,868.36,463.25,865.65,463.83,865.91L463.83,865.91z"/>
			</g>
		</g>
		<g>
			<path class="st2" d="M508.04,913.16c-8.82,6.51-17.95,10.02-26.25,10.59c-6.87,0.24-14.65-3.55-26.32-9.69
				c-12.63-6.42-18.86-14.32-17.73-18.3c0.36-0.67,1.16-2.1,5.87-3.13c-0.14,0.02-0.08,0,0.2-0.04c0.09-0.02,0.17-0.04,0.26-0.06
				c-0.08,0.02-0.14,0.03-0.2,0.05c0.07-0.01,0.14-0.02,0.23-0.03c4.99-0.62,10.04-0.5,15.05-0.76c-6.7-2.27-13.74-5.9-21.13-4.94
				c-9.25,1.22-12.14,9.85-9.7,18c2.36,7.54,7.83,13.79,14.04,18.51c11.32,8.35,26.88,15.67,41.19,12.55
				c11.21-2.91,20.92-10.82,27.12-20.48c1.68-2.62,3.07-5.41,4.23-8.29C512.61,909.42,510.63,911.21,508.04,913.16z"/>
			<path class="st2" d="M443.61,892.63c0.05-0.01,0.13-0.02,0.25-0.05c-0.02,0-0.03,0.01-0.05,0.01
				C443.74,892.6,443.68,892.62,443.61,892.63z"/>
		</g>
	</g>
	<g>
		<g>
			<g>
				<path class="st9" d="M959.53,377.23c14.53-2.25,29.11-4,43.39-7.59c13.95-3.51,28.26-7.25,41.52-12.96
					c6.76-2.91,13.21-6.4,20.07-9.14c4.77-1.91,9.17-4.54,13.59-7.13c10.73-6.27,20.72-14.03,30.69-21.39
					c-3.18,1.83-6.35,3.67-9.53,5.5c0.39-0.16,0.79-0.33,1.18-0.49c3.37-1.39,6.18-4.12,9.53-5.5
					c-9.33,3.86-17.39,11.05-25.67,16.63c-2.42,1.63-4.83,3.31-7.11,5.13c-2.92,2.32,1.08,0.06-2.35,1.43
					c-1.7,0.68-3.41,1.3-5.1,1.99c-6.46,2.64-12.46,6.3-19,8.75c-12.84,4.81-25.97,8.47-39.22,11.92
					c-13.91,3.62-28.28,5.15-42.46,7.35C965.66,372.26,962.88,376.72,959.53,377.23L959.53,377.23z"/>
			</g>
		</g>
		<g>
			<g>
				<path class="st9" d="M1032.18,355.18c-2.57-10.58,0.24-22.5,9.58-28.93c3.83-2.64,7.77-4.74,11.16-7.97
					c3.99-3.79,7.32-7.61,10.48-12.11c-1.89,2.69-7.6,2.75-9.53,5.5c-3.16,4.5-6.52,8.29-10.48,12.11
					c-3.51,3.39-7.79,5.5-11.71,8.32c-8.98,6.46-11.52,18.31-9.03,28.58C1022.43,359.75,1032.44,356.26,1032.18,355.18
					L1032.18,355.18z"/>
			</g>
		</g>
		<g>
			<g>
				<path class="st9" d="M1059.18,312.59c-1.3,3-3.51,6.79-3.11,10.18c0.39,3.26,2.39,6.55,2.99,9.86
					c1.51,8.37-5.18,15.65-9.74,21.87c1.97-2.68,7.52-2.77,9.53-5.5c4.56-6.21,11.24-13.49,9.74-21.87c-0.6-3.31-2.6-6.6-2.99-9.86
					c-0.4-3.39,1.8-7.19,3.11-10.18c-0.38,0.87-3.92,2.2-4.79,2.7C1062.91,310.37,1059.65,311.5,1059.18,312.59L1059.18,312.59z"/>
			</g>
		</g>
		<g>
			<g>
				<path class="st9" d="M1024.18,360.94c4.73,0.32,8.63,2.41,12.76,4.57c3.79,1.99,8.47,3.66,11.38,6.94
					c5.03,5.67,1.75,14.78,8.89,19.48c1.43,0.94,8.21-6.36,9.53-5.5c-7.16-4.71-3.85-13.8-8.89-19.48
					c-2.74-3.09-7.06-4.7-10.65-6.56c-4.4-2.28-8.46-4.62-13.5-4.96c-1.14-0.08-3.8,2.13-4.79,2.7
					C1027.91,358.72,1025.33,361.02,1024.18,360.94L1024.18,360.94z"/>
			</g>
		</g>
		<g>
			<g>
				<path class="st9" d="M1064.51,384.92c-4.88,0.6-8.9,1.38-13.51-0.75c-4.1-1.9-8.51-3.21-12.53-5.28
					c-3.53-1.82-7.47-5.15-8.09-9.33c-0.31-2.1,0.77-4.08,0.06-6.16c-0.64-1.88-2.52-3.65-4.09-4.75c-1.33-0.93-8.32,6.35-9.53,5.5
					c1.53,1.07,3.04,2.52,3.82,4.26c0.93,2.06,0.1,3.74,0.19,5.87c0.2,4.54,4.34,8.18,8.11,10.11c3.81,1.96,7.98,3.13,11.85,4.95
					c4.89,2.3,8.98,1.72,14.19,1.08C1058.36,390,1061.19,385.33,1064.51,384.92L1064.51,384.92z"/>
			</g>
		</g>
		<path class="st10" d="M1025.65,359.2c2.46,0.94,4.78,2.24,6.87,3.83c1.1,0.85,2.15,1.78,3.02,2.85c2.19,2.69,3.2,6.11,4.9,9.12
			c3.08,5.48,8.56,9.59,14.71,11.06"/>
		<path class="st10" d="M1041.65,350.97c0.56-2.97,1.72-5.82,3.4-8.33c1.8-2.69,4.17-4.99,5.78-7.8c1.2-2.1,1.94-4.42,2.67-6.73
			c0.97-3.07,1.95-6.18,2.2-9.4"/>
		<path class="st10" d="M1060.26,328.71c-0.92,0.82-1.86,1.66-2.98,2.19c-0.64,0.31-1.33,0.51-2.02,0.7
			c-1.11,0.32-2.22,0.64-3.34,0.96"/>
		<path class="st10" d="M1045.98,324.98c0.54,0.72,1.1,1.48,1.29,2.35c0.11,0.5,0.09,1.01,0.13,1.51c0.07,1.08,0.36,2.16,0.95,3.08
			c0.59,0.92,1.49,1.66,2.55,1.95"/>
		<path class="st10" d="M1058.75,335.34c-3.04,0.95-5.23,3.92-8.39,4.35c-0.94,0.13-1.94,0.02-2.82,0.38"/>
		<path class="st10" d="M1039.67,330.83c0.86,0.7,1.18,1.86,1.24,2.95c0.06,1.09-0.07,2.2,0.11,3.28c0.24,1.45,1.04,2.75,1.91,3.94
			c0.28,0.38,0.58,0.77,0.99,1.02s0.94,0.35,1.36,0.13"/>
		<path class="st10" d="M1055.73,341.12c-1.49,0.58-2.64,1.76-3.87,2.78c-2.63,2.16-5.85,3.63-9.23,4.22"/>
		<path class="st10" d="M1032.78,342.62c0.65-0.12,1.37-0.22,1.92,0.14c0.43,0.29,0.64,0.8,0.88,1.26c1.02,2.02,2.83,3.53,4.58,4.98
			c0.33,0.27,0.8,0.56,1.15,0.32"/>
		<path class="st10" d="M1035.77,361.04c-1.69-0.3-3.5,0.81-3.97,2.44"/>
		<path class="st10" d="M1030.45,373.62c-0.28-2.32,1.11-4.47,2.43-6.39c0.27-0.4,0.58-0.82,1.05-0.96c0.46-0.14,0.95,0.04,1.4,0.22
			"/>
		<path class="st10" d="M1047.13,367.33c-1.62-0.41-3.39-0.23-4.88,0.52c-1.49,0.74-2.68,2.04-3.3,3.57"/>
		<path class="st10" d="M1037.19,381.61c-0.53-1.07-0.5-2.34-0.17-3.47c0.33-1.14,0.93-2.17,1.53-3.19
			c0.26-0.44,0.68-0.94,1.17-0.79"/>
		<path class="st10" d="M1051.82,374.74c-2.67-0.7-5.67,0.44-7.3,2.62c-0.27,0.37-0.52,0.78-0.52,1.24c0,0.46,0.32,0.94,0.78,0.99"
			/>
		<path class="st10" d="M1045.38,385.23c-0.57-1.17-0.39-2.65,0.44-3.65"/>
		<path class="st2" d="M1111.68,248.78c4.96-3.57,11.02-5.91,17.22-6c11.13,0.24,21.1,5.31,23.37,16.86c1.03,5.35-0.16,10.73-1.1,16
			c-0.5,2.96-1.11,6.16,0.13,9.68c-2.82-3.62-3.77-8.14-4.4-12.56c-1.11-6.05-1.41-8.84-4.09-12.49c0,0-0.01-0.01-0.01-0.01
			c-2.43-2.57-1.36-1.63-3.51-2.9c-0.82-0.3-1.66-0.53-2.51-0.69c-1.93-0.21-3.89-0.27-5.82-0.1c-1.03,0.18-2.04,0.42-3.03,0.76
			c-0.53,0.24-1.05,0.49-1.57,0.76c-3.9,1.52-11.28,9.65-14.48,13.49c-3.13,4.02-6.04,8.25-8.19,12.86
			c-0.03,0.06-0.06,0.12-0.08,0.19c-4.04,10.86-4.45,18.16-1.83,26.2c1.85,3.95,5.2,7.13,9.08,10.21c1.61,1.22,3.22,2.45,4.93,3.53
			c-3.17-0.61-6.3-1.5-9.32-2.65c-13.35-4.86-17.73-16.47-18.3-29.58C1087.73,275.03,1097.79,258.73,1111.68,248.78z"/>
		<g>
			<g>
				<path class="st2" d="M1146.79,272.07c5.63-2.84,16.26-3.56,19.97,2.71c4.18,7.06,2.95,13.6-1.49,20.18
					c1.82-2.7,7.66-2.74,9.53-5.5c4.41-6.55,6.08-14.6,0.73-21.29c-4.24-5.29-14.23-4.11-19.56-1.42
					C1153.01,268.22,1149.1,270.9,1146.79,272.07L1146.79,272.07z"/>
			</g>
		</g>
		<g>
			<path class="st2" d="M1101.51,319.22c9.87,6.45,19.88,9.69,28.84,9.85c7.4-0.11,15.51-4.55,27.66-11.68
				c13.16-7.48,19.37-16.2,17.92-20.36c-0.43-0.69-1.37-2.16-6.5-3.01c0.16,0.02,0.09-0.01-0.21-0.04
				c-0.09-0.01-0.18-0.03-0.28-0.05c0.08,0.02,0.15,0.03,0.22,0.04c-0.07-0.01-0.16-0.01-0.25-0.02c-5.39-0.4-10.81,0-16.2-0.01
				c7.05-2.76,14.39-6.99,22.39-6.37c10.01,0.81,13.64,9.81,11.52,18.59c-2.07,8.13-7.57,15.05-13.94,20.39
				c-11.65,9.47-27.9,18.06-43.46,15.5c-12.21-2.5-23.13-10.37-30.38-20.3c-1.96-2.69-3.63-5.58-5.05-8.58
				C1096.38,315.49,1098.62,317.29,1101.51,319.22z"/>
			<path class="st2" d="M1169.44,294.02c-0.06-0.01-0.15-0.02-0.27-0.04c0.02,0,0.04,0,0.06,0.01
				C1169.3,294,1169.37,294.01,1169.44,294.02z"/>
		</g>
	</g>
	<g>
		<g>
			<g>
				<path class="st9" d="M1668.3,616.15c-6.28-2.49-12.55-4.65-18.7-7.47c-5.6-2.57-11.52-4.19-16.99-7.07
					c-11.25-5.93-22.16-12.03-33.05-18.62c-5.26-3.19-9.87-6.81-14.62-10.7c-4.83-3.96-10.32-7.09-14.98-11.23
					c-4.61-4.11-8.2-9.23-12.43-13.72c-2.01-2.14-4.11-4.18-6.04-6.39c-1.91-2.19-3.45-5.11-5.82-6.81
					c-1.29-0.92-8.36,6.34-9.53,5.5c2.16,1.54,3.5,4.09,5.22,6.1c2.11,2.47,4.42,4.74,6.64,7.1c4.04,4.28,7.47,9.16,11.81,13.15
					c4.57,4.21,10.05,7.31,14.88,11.22c5.01,4.05,9.8,7.93,15.33,11.29c10.61,6.44,21.26,12.38,32.22,18.18
					c11.56,6.12,24.38,10.16,36.52,14.98c0.65,0.26,4.14-2.33,4.79-2.7C1664.2,618.58,1667.66,615.89,1668.3,616.15L1668.3,616.15z"
					/>
			</g>
		</g>
		<g>
			<g>
				<path class="st9" d="M1611.67,586.46c4.62-9.04,5.26-20.78-1.46-29.08c-3.14-3.89-7.04-6.88-9.76-11.14
					c-2.91-4.55-5.23-8.96-7.2-13.99c0.17,0.44-9.76,4.91-9.53,5.5c1.88,4.81,4.07,8.94,6.8,13.32c2.83,4.55,6.84,7.7,10.17,11.81
					c6.71,8.3,6.08,20.04,1.46,29.08c0.48-0.94,3.84-2.15,4.79-2.7C1608.01,588.63,1611.08,587.61,1611.67,586.46L1611.67,586.46z"
					/>
			</g>
		</g>
		<g>
			<g>
				<path class="st9" d="M1578.42,537.5c0.55,3.2,1.76,7.35,0.59,10.53c-0.9,2.44-2.9,5-4.27,7.29c-4.82,8.06,0.08,17.19,3.29,24.89
					c-0.15-0.36,9.74-4.99,9.53-5.5c-3.21-7.7-8.11-16.83-3.29-24.89c1.37-2.29,3.37-4.85,4.27-7.29c1.18-3.18-0.04-7.33-0.59-10.53
					C1588.14,533.17,1578.19,536.17,1578.42,537.5L1578.42,537.5z"/>
			</g>
		</g>
		<g>
			<g>
				<path class="st9" d="M1610.15,586.38c-6.3-0.93-12.65,1.39-18.68,3.03c-4.36,1.19-7.94,3.25-11.82,5.5
					c-3.67,2.12-6.76,3.73-8.67,7.74c-2.05,4.3-3.28,8.04-7.24,11.1c0.78-0.47,1.56-0.94,2.34-1.4c-0.34,0.2-0.68,0.4-1.03,0.6
					c2.4-1.37,4.79-2.73,7.19-4.1c-0.35,0.13-0.7,0.26-1.04,0.39c-3.4,1.28-6.16,4.23-9.53,5.5c4.22-1.59,9.11-4.34,12.59-7.26
					c5.01-4.2,5.09-11.31,10.18-15.27c-1.58,0.93-3.16,1.87-4.74,2.8c0.42-0.24,0.84-0.48,1.26-0.72c-1.6,0.9-3.19,1.8-4.79,2.7
					c6.88-3.1,16.94-6.22,24.45-5.1c1.01,0.15,3.9-2.19,4.79-2.7C1606.31,588.66,1609.12,586.23,1610.15,586.38L1610.15,586.38z"/>
			</g>
		</g>
		<g>
			<g>
				<path class="st9" d="M1564.16,613.76c3.02,1.09,6.01,2.62,9.27,2.7c2.59,0.06,5.03-0.93,7.55-1.36
					c5.19-0.88,10.07-1.19,14.8-3.72c3.45-1.85,7.15-3.72,10.3-6.06c2.1-1.56,3.77-3.46,4.34-6.06c0.85-3.9,1.04-5.33,4.8-7.63
					c-3.12,1.8-6.24,3.59-9.36,5.39c0.35-0.14,0.71-0.29,1.06-0.43c3.37-1.38,6.18-4.13,9.53-5.5c-3.48,1.43-6.74,3.59-9.95,5.53
					c-1.5,0.91-3.15,1.85-4.24,3.26c-1.78,2.29-0.97,5.22-2.48,7.69c-0.87,1.41-4.27,3.52,0.23,1.04c4.65-2.57,0.76-0.7-0.67-0.37
					c-2.91,0.67-5.88,0.86-8.82,1.36c-2.52,0.43-4.96,1.42-7.55,1.36c-3.26-0.08-6.27-1.62-9.27-2.7c-0.69-0.25-4.12,2.31-4.79,2.7
					C1568.23,611.35,1564.85,614.01,1564.16,613.76L1564.16,613.76z"/>
			</g>
		</g>
		<path class="st10" d="M1608.3,590.82c-2.58,0.38-5.11,1.13-7.49,2.23c-1.26,0.58-2.48,1.26-3.57,2.11
			c-2.73,2.13-4.5,5.22-6.84,7.77c-4.24,4.63-10.46,7.44-16.71,7.52"/>
		<path class="st10" d="M1594.89,579.39c0.16-2.99-0.28-6.01-1.3-8.8c-1.09-3-2.83-5.74-3.71-8.8c-0.66-2.29-0.82-4.7-0.98-7.09
			c-0.21-3.19-0.42-6.41,0.1-9.58"/>
		<path class="st10" d="M1582.28,553.81c0.69,1,1.39,2.01,2.34,2.77c0.55,0.44,1.16,0.78,1.77,1.12c0.99,0.55,1.98,1.1,2.97,1.66"/>
		<path class="st10" d="M1596.85,553.29c-0.69,0.58-1.4,1.19-1.79,2c-0.22,0.46-0.33,0.96-0.48,1.44c-0.32,1.03-0.85,2.02-1.63,2.78
			s-1.82,1.28-2.9,1.34"/>
		<path class="st10" d="M1582.16,560.56c2.69,1.58,4.09,4.93,7.03,6.03c0.87,0.33,1.85,0.44,2.61,0.98"/>
		<path class="st10" d="M1601.52,560.31c-0.99,0.49-1.57,1.55-1.88,2.59c-0.32,1.04-0.45,2.14-0.87,3.15
			c-0.57,1.35-1.64,2.44-2.76,3.4c-0.36,0.31-0.74,0.62-1.19,0.78c-0.45,0.16-0.99,0.14-1.34-0.17"/>
		<path class="st10" d="M1583.71,566.81c1.3,0.89,2.12,2.28,3.06,3.53c2.02,2.66,4.75,4.78,7.86,6.08"/>
		<path class="st10" d="M1605.36,573.23c-0.59-0.26-1.27-0.51-1.88-0.28c-0.48,0.19-0.8,0.63-1.14,1.03
			c-1.45,1.74-3.54,2.81-5.56,3.83c-0.38,0.19-0.9,0.37-1.18,0.06"/>
		<path class="st10" d="M1598.16,590.42c1.69,0.07,3.17,1.54,3.23,3.22"/>
		<path class="st10" d="M1600.31,603.74c0.81-2.19-0.01-4.57-0.83-6.71c-0.17-0.45-0.37-0.92-0.78-1.16
			c-0.41-0.23-0.92-0.16-1.4-0.09"/>
		<path class="st10" d="M1585.79,594.05c1.66-0.05,3.31,0.51,4.56,1.56c1.25,1.04,2.1,2.55,2.32,4.17"/>
		<path class="st10" d="M1591.98,610.02c0.76-0.92,1.03-2.15,0.98-3.33c-0.05-1.17-0.39-2.3-0.72-3.42
			c-0.14-0.48-0.43-1.06-0.93-1.01"/>
		<path class="st10" d="M1579.56,600.2c2.72-0.1,5.33,1.66,6.38,4.12c0.18,0.41,0.31,0.87,0.21,1.31c-0.1,0.44-0.52,0.85-0.98,0.79"
			/>
		<path class="st10" d="M1583.27,611.76c0.82-1.01,1-2.48,0.44-3.63"/>
		<path class="st2" d="M1551.75,465.29c-3.92-4.53-9.18-8.11-15.1-9.54c-10.73-2.18-21.48,0.57-26.37,11.27
			c-2.24,4.96-2.37,10.43-2.71,15.73c-0.22,2.97-0.38,6.2-2.39,9.34c3.56-2.9,5.53-7.07,7.17-11.21c2.49-5.62,3.43-8.26,6.86-11.21
			c0,0,0.01-0.01,0.01-0.01c2.93-1.96,1.69-1.28,4.04-2.05c0.85-0.11,1.71-0.15,2.57-0.12c1.9,0.21,3.79,0.58,5.61,1.17
			c0.94,0.39,1.86,0.85,2.72,1.39c0.45,0.35,0.89,0.7,1.32,1.07c3.39,2.31,8.55,11.78,10.71,16.2c2.05,4.57,3.85,9.29,4.83,14.23
			c0.01,0.07,0.02,0.13,0.04,0.2c1.32,11.39,0,18.55-4.4,25.77c-2.7,3.43-6.66,5.78-11.1,7.92c-1.83,0.83-3.66,1.68-5.55,2.35
			c3.18,0.1,6.4-0.09,9.56-0.55c13.94-1.82,20.87-12.11,24.5-24.68C1568.55,495.89,1562.73,477.92,1551.75,465.29z"/>
		<g>
			<g>
				<path class="st2" d="M1513.61,473.91c-3.64-3.05-9-4.63-13.66-4.44c-4.08,0.16-7.37,2.72-10.81,4.72c-3.45,2-5.89,3.93-8,7.48
					c-3,5.04-2.26,10.46-0.3,15.78c-0.19-0.51,9.77-4.84,9.53-5.5c-2.91-7.88-2.04-15.68,4.83-21.2c-2.7,1.58-5.41,3.15-8.11,4.73
					c0.41-0.23,0.81-0.46,1.22-0.68c-0.47,0.26-0.94,0.51-1.41,0.77c5.65-1.78,12.72,0.08,17.2,3.84
					C1505.1,480.27,1512.71,473.16,1513.61,473.91L1513.61,473.91z"/>
			</g>
		</g>
		<g>
			<path class="st2" d="M1544.95,535.69c-10.98,4.11-21.34,5.08-29.97,3.29c-7.07-1.7-13.81-7.76-23.78-17.29
				c-10.86-10.09-14.77-19.88-12.4-23.59c0.57-0.58,1.82-1.8,6.94-1.51c-0.15-0.02-0.08-0.02,0.21,0.01
				c0.09,0.01,0.18,0.01,0.28,0.02c-0.08,0-0.15-0.01-0.22-0.01c0.07,0.01,0.15,0.02,0.24,0.04c5.27,0.78,10.36,2.34,15.54,3.5
				c-6.11-4.2-12.16-9.88-19.97-11.01c-9.79-1.39-15.38,6.55-15.41,15.51c0.07,8.32,3.72,16.21,8.57,22.76
				c8.94,11.69,22.51,23.53,38.03,24.41c12.3,0.23,24.61-5.04,33.9-13.08c2.52-2.18,4.79-4.62,6.86-7.21
				C1550.75,533.19,1548.18,534.45,1544.95,535.69z"/>
			<path class="st2" d="M1485.74,496.6c0.06,0.01,0.14,0.01,0.27,0.02c-0.02,0-0.04,0-0.06-0.01
				C1485.88,496.6,1485.81,496.6,1485.74,496.6z"/>
		</g>
	</g>
	<g>
		<g>
			<g>
				<path class="st9" d="M1107.19,982.85c3.97-4.84,8.2-9.32,11.87-14.41c3.49-4.85,7.83-9,11.14-13.98
					c7-10.52,13.4-21.13,19.63-32.11c3-5.29,5.22-10.64,7.42-16.29c2.21-5.69,5.38-10.98,7.36-16.74
					c1.91-5.55,2.45-11.46,3.82-17.16c0.79-3.3,1.74-6.55,2.38-9.88c0.49-2.55,0.4-5.39,1.5-7.75c-0.42,0.9-3.89,2.18-4.79,2.7
					c-1.03,0.6-4.21,1.68-4.74,2.8c-1,2.13-0.93,4.55-1.33,6.85c-0.58,3.34-1.52,6.59-2.32,9.88c-1.47,5.98-2.04,12.22-4.04,18.05
					c-1.88,5.48-4.9,10.52-7.04,15.9c-2.35,5.92-4.58,11.57-7.74,17.13c-6.23,10.98-12.64,21.6-19.63,32.11
					c-3.15,4.74-7.26,8.67-10.62,13.25c-3.9,5.3-8.22,10.07-12.39,15.15C1099.82,985.72,1104.99,985.53,1107.19,982.85
					L1107.19,982.85z"/>
			</g>
		</g>
		<g>
			<g>
				<path class="st9" d="M1141.25,930.77c-7.8-5.38-13.52-14.01-13.16-23.82c0.2-5.37,2.74-10.36,3.12-15.74
					c0.4-5.66,0.21-10.91-0.6-16.52c0.18,1.27-9.73,4.08-9.53,5.5c0.76,5.3,0.96,10.24,0.65,15.6c-0.33,5.7-2.96,10.99-3.17,16.66
					c-0.36,9.81,5.35,18.43,13.16,23.82C1133.08,937.21,1140.02,929.92,1141.25,930.77L1141.25,930.77z"/>
			</g>
		</g>
		<g>
			<g>
				<path class="st9" d="M1125.52,877.55c1.07,3,2.05,7.39,4.63,9.52c2.45,2.02,5.77,3.32,8.42,5.21c6.98,4.98,7.16,14.91,8.1,22.61
					c-0.17-1.35,9.71-4,9.53-5.5c-0.94-7.7-1.12-17.62-8.1-22.61c-2.54-1.81-5.58-3.1-7.98-4.97c-2.86-2.23-3.89-6.46-5.07-9.76
					C1135.24,872.6,1125.27,876.84,1125.52,877.55L1125.52,877.55z"/>
			</g>
		</g>
		<g>
			<g>
				<path class="st9" d="M1142.52,930c0.63-0.44,1.26-0.87,1.89-1.31c-2.96,1.7-5.93,3.4-8.89,5.1c3.83-1.82,7.95-2.52,12.05-3.49
					c4.05-0.95,8.51-2.41,12.61-0.92c6.28,2.28,9.73,9.24,17.34,8.31c3.38-0.41,6.21-5.09,9.53-5.5c-4.6,0.56-8.67-2.03-12.04-4.84
					c-5.55-4.61-10.16-4.43-17.02-2.77c-9.21,2.22-17.33,5.1-24.98,10.92C1135.88,933.31,1139.61,932.21,1142.52,930L1142.52,930z"
					/>
			</g>
		</g>
		<g>
			<g>
				<path class="st9" d="M1174.89,937.98c-2.05,2.32-3.8,4.84-6.47,6.52c3.12-1.8,6.24-3.59,9.36-5.39
					c-3.49,1.6-7.41,2.5-11.05,3.76c-3.27,1.13-6.6,2.24-10.11,2.04c-3.64-0.21-6.39-1.43-8.59-4.24c-2.29-2.92-4.8-3.99-8.63-3.63
					c-3.35,0.31-6.24,5.19-9.53,5.5c2.32-0.22,5.33,0.08,7.18,1.66c2.21,1.89,2.63,4.13,5.65,5.33c5.99,2.38,12.14-0.34,17.77-2.38
					c4.79-1.74,8.78-3.03,13.21-5.6c4.46-2.58,7.3-5.18,10.73-9.06C1182.14,935.06,1177.21,935.35,1174.89,937.98L1174.89,937.98z"
					/>
			</g>
		</g>
		<path class="st10" d="M1136.07,935.58c2.39-0.85,4.93-1.35,7.5-1.48c1.36-0.07,2.74-0.03,4.09,0.21c3.38,0.62,6.4,2.52,9.65,3.69
			c5.89,2.12,12.59,1.73,17.98-1.06"/>
		<path class="st10" d="M1142,919.38c-1.6-2.56-2.68-5.41-3.17-8.33c-0.52-3.13-0.37-6.34-1.11-9.44c-0.55-2.32-1.59-4.51-2.62-6.68
			c-1.37-2.9-2.76-5.82-4.75-8.37"/>
		<path class="st10" d="M1140.34,891.12c-0.1,1.19-0.21,2.4-0.66,3.51c-0.25,0.63-0.61,1.22-0.97,1.8
			c-0.58,0.94-1.16,1.88-1.74,2.82"/>
		<path class="st10" d="M1127.6,897.36c0.87,0.2,1.78,0.4,2.51,0.93c0.41,0.3,0.75,0.69,1.11,1.04c0.78,0.76,1.71,1.38,2.75,1.69
			c1.04,0.31,2.19,0.29,3.14-0.16"/>
		<path class="st10" d="M1143.73,897c-1.53,2.62-1.11,6.21-3.08,8.52c-0.59,0.69-1.37,1.24-1.76,2.06"/>
		<path class="st10" d="M1127.02,905.67c1.09-0.03,2.09,0.64,2.88,1.41c0.78,0.77,1.43,1.68,2.28,2.37
			c1.15,0.92,2.59,1.39,4.02,1.72c0.46,0.11,0.94,0.21,1.4,0.14c0.46-0.07,0.91-0.33,1.06-0.76"/>
		<path class="st10" d="M1145.45,903.2c-0.68,1.37-0.7,2.97-0.91,4.5c-0.43,3.27-1.74,6.38-3.77,8.95"/>
		<path class="st10" d="M1130.02,918.78c0.38-0.5,0.83-1.03,1.47-1.11c0.5-0.06,1,0.19,1.47,0.38c2.09,0.86,4.4,0.84,6.64,0.81
			c0.42-0.01,0.95-0.09,1.04-0.49"/>
		<path class="st10" d="M1144.57,930.57c-1.41,0.84-1.96,2.81-1.2,4.31"/>
		<path class="st10" d="M1149.22,943.26c-1.76-1.55-2.21-4.01-2.56-6.28c-0.07-0.47-0.14-0.98,0.11-1.38
			c0.24-0.39,0.71-0.57,1.15-0.72"/>
		<path class="st10" d="M1156.94,928.07c-1.44,0.72-2.58,1.97-3.15,3.46c-0.57,1.49-0.55,3.21,0.04,4.73"/>
		<path class="st10" d="M1159.42,944.95c-1.1-0.46-1.93-1.42-2.46-2.47c-0.53-1.05-0.79-2.2-1.05-3.34
			c-0.11-0.49-0.15-1.12,0.31-1.32"/>
		<path class="st10" d="M1165.28,930.62c-2.38,1.16-3.76,3.9-3.46,6.55c0.05,0.44,0.15,0.91,0.46,1.25c0.3,0.34,0.86,0.5,1.22,0.24"
			/>
		<path class="st10" d="M1167.73,942.47c-1.19-0.51-2.06-1.72-2.14-2.99"/>
		<path class="st2" d="M1123.37,799.36c1.15-5.78,3.92-11.34,8.29-15.31c8.14-6.84,18.68-9.36,28.09-2.21
			c4.34,3.33,7.11,8.07,9.98,12.57c1.64,2.51,3.35,5.27,6.6,7.11c-4.46-0.91-8.18-3.67-11.61-6.55c-4.87-3.79-6.96-5.68-11.34-6.69
			c-0.01,0-0.01,0-0.01,0c-3.47-0.38-2.07-0.35-4.46,0.06c-0.79,0.29-1.54,0.65-2.26,1.07c-1.53,1.06-2.97,2.25-4.23,3.6
			c-0.62,0.78-1.18,1.6-1.65,2.47c-0.22,0.51-0.43,1.03-0.61,1.55c-1.77,3.59-1.59,14.27-1.29,19.14c0.47,4.95,1.23,9.93,2.79,14.71
			c0.02,0.06,0.04,0.13,0.07,0.19c4.42,10.61,9.04,16.29,16.32,20.61c3.98,1.77,8.53,2.02,13.37,1.86c1.97-0.11,3.95-0.21,5.9-0.49
			c-2.68,1.55-5.52,2.86-8.46,3.91c-12.83,4.81-23.78-1.05-33.02-10.43C1123.88,833.95,1120.12,815.5,1123.37,799.36z"/>
		<g>
			<g>
				<path class="st2" d="M1170.44,786.9c1-2.84,3.72-6.01,5.79-8.16c-1.16,0.69-2.31,1.38-3.47,2.06c-8.45,4.91-0.82,0.04,2.39,0.37
					c2.5,0.26,5.08,1.78,7.16,3.11c4.62,2.94,6.46,8.07,7.31,13.29c-0.2-1.21,9.75-4.14,9.53-5.5c-0.91-5.61-2.95-10.69-7.95-13.73
					c-4.5-2.73-7.99-3.32-12.64-0.87c-6.72,3.54-14.94,7.21-17.65,14.93c0.28-0.78,4.01-2.25,4.79-2.7
					C1166.61,789.17,1170.08,787.92,1170.44,786.9L1170.44,786.9z"/>
			</g>
		</g>
		<g>
			<path class="st2" d="M1163.5,858.07c11.41-1.44,20.76-5.34,27.28-10.87c5.23-4.74,8.05-13.16,11.95-26.11
				c4.39-13.85,2.97-24.24-0.87-26.41c-0.77-0.25-2.44-0.74-6.68,1.86c0.12-0.09,0.06-0.06-0.18,0.11
				c-0.08,0.05-0.15,0.09-0.23,0.14c0.07-0.04,0.13-0.08,0.18-0.11c-0.06,0.04-0.12,0.09-0.19,0.14
				c-4.13,3.11-7.74,6.81-11.61,10.21c3.19-6.5,5.6-14.26,11.75-18.84c7.71-5.71,16.37-1.32,20.76,6.54
				c3.99,7.34,4.71,15.95,3.74,23.92c-1.97,14.37-7.83,31-20.69,38.91c-10.43,5.85-23.55,6.88-35.42,4.08
				c-3.22-0.76-6.35-1.86-9.39-3.18C1157.31,858.54,1160.12,858.46,1163.5,858.07z"/>
			<path class="st2" d="M1195.19,796.54c-0.05,0.03-0.12,0.08-0.22,0.14c0.02-0.01,0.03-0.02,0.04-0.03
				C1195.07,796.61,1195.13,796.58,1195.19,796.54z"/>
		</g>
	</g>
</g>
</svg>
