<?xml version="1.0" encoding="UTF-8"?>
<svg id="Layer_1" data-name="Layer 1" xmlns="http://www.w3.org/2000/svg" viewBox="0 0 227.67 149.23">
  <defs>
    <style>
      .cls-1 {
        fill: none;
        stroke: #00b26e;
        stroke-miterlimit: 10;
      }

      .cls-2 {
        fill: #c32a2a;
      }

      .cls-2, .cls-3 {
        stroke-width: 0px;
      }

      .cls-3 {
        fill: #00ac5f;
      }
    </style>
  </defs>
  <path class="cls-3" d="m0,134.45c14.53-2.25,29.11-4,43.39-7.59,13.95-3.51,28.26-7.25,41.52-12.96,6.76-2.91,13.21-6.4,20.07-9.14,4.77-1.91,9.17-4.54,13.59-7.13,10.73-6.27,20.72-14.03,30.69-21.39-3.18,1.83-6.35,3.67-9.53,5.5.39-.16.79-.33,1.18-.49,3.37-1.39,6.18-4.12,9.53-5.5-9.33,3.86-17.39,11.05-25.67,16.63-2.42,1.63-4.83,3.31-7.11,5.13-2.92,2.32,1.08.06-2.35,1.43-1.7.68-3.41,1.3-5.1,1.99-6.46,2.64-12.46,6.3-19,8.75-12.84,4.81-25.97,8.47-39.22,11.92-13.91,3.62-28.28,5.15-42.46,7.35-3.4.53-6.18,4.99-9.53,5.5h0Z"/>
  <path class="cls-3" d="m72.65,112.4c-2.57-10.58.24-22.5,9.58-28.93,3.83-2.64,7.77-4.74,11.16-7.97,3.99-3.79,7.32-7.61,10.48-12.11-1.89,2.69-7.6,2.75-9.53,5.5-3.16,4.5-6.52,8.29-10.48,12.11-3.51,3.39-7.79,5.5-11.71,8.32-8.98,6.46-11.52,18.31-9.03,28.58-.22-.93,9.79-4.42,9.53-5.5h0Z"/>
  <path class="cls-3" d="m99.65,69.81c-1.3,3-3.51,6.79-3.11,10.18.39,3.26,2.39,6.55,2.99,9.86,1.51,8.37-5.18,15.65-9.74,21.87,1.97-2.68,7.52-2.77,9.53-5.5,4.56-6.21,11.24-13.49,9.74-21.87-.6-3.31-2.6-6.6-2.99-9.86-.4-3.39,1.8-7.19,3.11-10.18-.38.87-3.92,2.2-4.79,2.7-1.01.58-4.27,1.71-4.74,2.8h0Z"/>
  <path class="cls-3" d="m64.65,118.16c4.73.32,8.63,2.41,12.76,4.57,3.79,1.99,8.47,3.66,11.38,6.94,5.03,5.67,1.75,14.78,8.89,19.48,1.43.94,8.21-6.36,9.53-5.5-7.16-4.71-3.85-13.8-8.89-19.48-2.74-3.09-7.06-4.7-10.65-6.56-4.4-2.28-8.46-4.62-13.5-4.96-1.14-.08-3.8,2.13-4.79,2.7-1,.59-3.58,2.89-4.73,2.81h0Z"/>
  <path class="cls-3" d="m104.98,142.14c-4.88.6-8.9,1.38-13.51-.75-4.1-1.9-8.51-3.21-12.53-5.28-3.53-1.82-7.47-5.15-8.09-9.33-.31-2.1.77-4.08.06-6.16-.64-1.88-2.52-3.65-4.09-4.75-1.33-.93-8.32,6.35-9.53,5.5,1.53,1.07,3.04,2.52,3.82,4.26.93,2.06.1,3.74.19,5.87.2,4.54,4.34,8.18,8.11,10.11,3.81,1.96,7.98,3.13,11.85,4.95,4.89,2.3,8.98,1.72,14.19,1.08,3.38-.42,6.21-5.09,9.53-5.5h0Z"/>
  <path class="cls-1" d="m66.12,116.42c2.46.94,4.78,2.24,6.87,3.83,1.1.85,2.15,1.78,3.02,2.85,2.19,2.69,3.2,6.11,4.9,9.12,3.08,5.48,8.56,9.59,14.71,11.06"/>
  <path class="cls-1" d="m82.12,108.19c.56-2.97,1.72-5.82,3.4-8.33,1.8-2.69,4.17-4.99,5.78-7.8,1.2-2.1,1.94-4.42,2.67-6.73.97-3.07,1.95-6.18,2.2-9.4"/>
  <path class="cls-1" d="m100.73,85.93c-.92.82-1.86,1.66-2.98,2.19-.64.31-1.33.51-2.02.7-1.11.32-2.22.64-3.34.96"/>
  <path class="cls-1" d="m86.45,82.2c.54.72,1.1,1.48,1.29,2.35.11.5.09,1.01.13,1.51.07,1.08.36,2.16.95,3.08.59.92,1.49,1.66,2.55,1.95"/>
  <path class="cls-1" d="m99.22,92.56c-3.04.95-5.23,3.92-8.39,4.35-.94.13-1.94.02-2.82.38"/>
  <path class="cls-1" d="m80.14,88.05c.86.7,1.18,1.86,1.24,2.95.06,1.09-.07,2.2.11,3.28.24,1.45,1.04,2.75,1.91,3.94.28.38.58.77.99,1.02s.94.35,1.36.13"/>
  <path class="cls-1" d="m96.2,98.34c-1.49.58-2.64,1.76-3.87,2.78-2.63,2.16-5.85,3.63-9.23,4.22"/>
  <path class="cls-1" d="m73.25,99.84c.65-.12,1.37-.22,1.92.14.43.29.64.8.88,1.26,1.02,2.02,2.83,3.53,4.58,4.98.33.27.8.56,1.15.32"/>
  <path class="cls-1" d="m76.24,118.26c-1.69-.3-3.5.81-3.97,2.44"/>
  <path class="cls-1" d="m70.92,130.84c-.28-2.32,1.11-4.47,2.43-6.39.27-.4.58-.82,1.05-.96.46-.14.95.04,1.4.22"/>
  <path class="cls-1" d="m87.6,124.55c-1.62-.41-3.39-.23-4.88.52-1.49.74-2.68,2.04-3.3,3.57"/>
  <path class="cls-1" d="m77.66,138.83c-.53-1.07-.5-2.34-.17-3.47.33-1.14.93-2.17,1.53-3.19.26-.44.68-.94,1.17-.79"/>
  <path class="cls-1" d="m92.29,131.96c-2.67-.7-5.67.44-7.3,2.62-.27.37-.52.78-.52,1.24s.32.94.78.99"/>
  <path class="cls-1" d="m85.85,142.45c-.57-1.17-.39-2.65.44-3.65"/>
  <path class="cls-2" d="m152.15,6c4.96-3.57,11.02-5.91,17.22-6,11.13.24,21.1,5.31,23.37,16.86,1.03,5.35-.16,10.73-1.1,16-.5,2.96-1.11,6.16.13,9.68-2.82-3.62-3.77-8.14-4.4-12.56-1.11-6.05-1.41-8.84-4.09-12.49h-.01c-2.43-2.58-1.36-1.64-3.51-2.91-.82-.3-1.66-.53-2.51-.69-1.93-.21-3.89-.27-5.82-.1-1.03.18-2.04.42-3.03.76-.53.24-1.05.49-1.57.76-3.9,1.52-11.28,9.65-14.48,13.49-3.13,4.02-6.04,8.25-8.19,12.86-.03.06-.06.12-.08.19-4.04,10.86-4.45,18.16-1.83,26.2,1.85,3.95,5.2,7.13,9.08,10.21,1.61,1.22,3.22,2.45,4.93,3.53-3.17-.61-6.3-1.5-9.32-2.65-13.35-4.86-17.73-16.47-18.3-29.58-.44-17.31,9.62-33.61,23.51-43.56Z"/>
  <path class="cls-2" d="m187.26,29.29c5.63-2.84,16.26-3.56,19.97,2.71,4.18,7.06,2.95,13.6-1.49,20.18,1.82-2.7,7.66-2.74,9.53-5.5,4.41-6.55,6.08-14.6.73-21.29-4.24-5.29-14.23-4.11-19.56-1.42-2.96,1.47-6.87,4.15-9.18,5.32h0Z"/>
  <g>
    <path class="cls-2" d="m141.98,76.44c9.87,6.45,19.88,9.69,28.84,9.85,7.4-.11,15.51-4.55,27.66-11.68,13.16-7.48,19.37-16.2,17.92-20.36-.43-.69-1.37-2.16-6.5-3.01.16.02.09-.01-.21-.04-.09-.01-.18-.03-.28-.05.08.02.15.03.22.04-.07-.01-.16-.01-.25-.02-5.39-.4-10.81,0-16.2-.01,7.05-2.76,14.39-6.99,22.39-6.37,10.01.81,13.64,9.81,11.52,18.59-2.07,8.13-7.57,15.05-13.94,20.39-11.65,9.47-27.9,18.06-43.46,15.5-12.21-2.5-23.13-10.37-30.38-20.3-1.96-2.69-3.63-5.58-5.05-8.58,2.59,2.32,4.83,4.12,7.72,6.05Z"/>
    <path class="cls-2" d="m209.91,51.24c-.06-.01-.15-.02-.27-.04.02,0,.04,0,.06.01.07.01.14.02.21.03Z"/>
  </g>
</svg>