<?xml version="1.0" encoding="UTF-8"?>
<svg id="Layer_1" data-name="Layer 1" xmlns="http://www.w3.org/2000/svg" viewBox="0 0 357.98 356.78">
  <defs>
    <style>
      .cls-1 {
        fill: #cca354;
        stroke: #000;
        stroke-miterlimit: 10;
      }
    </style>
  </defs>
  <g id="_Radial_Repeat_">
    <polygon class="cls-1" points="341.94 251.05 273.64 241.35 309.94 299.95 248.44 268.75 263.74 335.95 215.74 286.45 208.34 354.95 179.04 292.65 149.84 354.95 142.34 286.45 94.34 335.95 109.64 268.75 48.14 299.95 84.44 241.35 16.14 251.05 69.44 207.35 1.84 194.35 66.34 170.25 6.74 136.05 75.54 134.25 30.14 82.35 95.84 103.15 69.74 39.25 125.24 80.25 121.24 11.35 160.44 68.05 179.04 1.85 197.54 68.15 236.84 11.35 232.84 80.15 288.14 39.25 262.14 103.05 327.94 82.25 282.54 134.15 351.44 135.85 291.64 170.25 356.14 194.35 288.64 207.35 341.94 251.05"/>
  </g>
</svg>