<?xml version="1.0" encoding="utf-8"?>
<!-- Generator: Adobe Illustrator 28.0.0, SVG Export Plug-In . SVG Version: 6.00 Build 0)  -->
<svg version="1.1" id="Layer_1" xmlns="http://www.w3.org/2000/svg" x="0px" y="0px"
	 viewBox="0 0 358.1 356.9" style="enable-background:new 0 0 358.1 356.9;" xml:space="preserve">
	<style type="text/css">
	.st0{fill:#CCA354;stroke:#000000;stroke-miterlimit:10;}
</style>
<g id="_Radial_Repeat_">
	<polygon class="st0" points="342,251.1 273.7,241.4 310,300 248.5,268.8 263.8,336 215.8,286.5 208.4,355 179.1,292.7 149.9,355 
		142.4,286.5 94.4,336 109.7,268.8 48.2,300 84.5,241.4 16.2,251.1 69.5,207.4 1.9,194.4 66.4,170.3 6.8,136.1 75.6,134.3 
		30.2,82.4 95.9,103.2 69.8,39.3 125.3,80.3 121.3,11.4 160.5,68.1 179.1,1.9 197.6,68.2 236.9,11.4 232.9,80.2 288.2,39.3 
		262.2,103.1 328,82.3 282.6,134.2 351.5,135.9 291.7,170.3 356.2,194.4 288.7,207.4 	"/>
</g>
</svg>
